<svg xmlns="http://www.w3.org/2000/svg" width="266.85" height="227.87" viewBox="0 0 266.85 227.87"><path d="M214,103.3a50.79,50.79,0,0,0-18-4.57h-64.2l0-13.31,0-51c0-16.83-10.38-25.39-19.1-29.61A51.46,51.46,0,0,0,94.6,0H38.08V51.38c0,16.88,10.41,25.33,19.14,29.44a50.53,50.53,0,0,0,18,4.57H105V69.59h-29a33.41,33.41,0,0,1-11.23-3c-6.48-3.17-9.5-8-9.5-15.21V15.81H93.71A33.8,33.8,0,0,1,105,19c6.56,3.29,9.61,8.2,9.61,15.45v67.51h0l.05,12.6h80.59a33.44,33.44,0,0,1,11.24,3c6.48,3.17,9.5,8,9.5,15.21v35.57H177.49a33.68,33.68,0,0,1-11.28-3.18c-6.56-3.28-9.62-8.19-9.62-15.43V125.14H139.45l0,24.57c0,16.82,10.39,25.38,19.1,29.6a51.71,51.71,0,0,0,18,4.8h56.53V132.74C233.13,115.86,222.72,107.41,214,103.3Z" fill="#811739"/><path d="M177,0h-.47a51.56,51.56,0,0,0-18,4.8c-8.71,4.22-19.1,12.78-19.1,29.61V69.59h-.07l0,15.82H196a50.54,50.54,0,0,0,18-4.57c8.74-4.11,19.15-12.56,19.15-29.44V0Zm39,51.38c0,7.21-3,12-9.5,15.21a33.77,33.77,0,0,1-11.11,3H156.59V34.42c0-7.25,3.06-12.16,9.62-15.45a33.87,33.87,0,0,1,11.13-3.16H216Z" fill="#197978"/><path d="M114.61,149.71c0,7.24-3,12.15-9.61,15.44a33.84,33.84,0,0,1-11.14,3.16H55.2V132.74c0-7.21,3-12,9.5-15.21a33.71,33.71,0,0,1,11.11-3h29.11V98.72H75.21a50.94,50.94,0,0,0-18,4.57c-8.73,4.11-19.14,12.56-19.14,29.44v51.38H94.65a51.81,51.81,0,0,0,18-4.8c8.72-4.22,19.1-12.78,19.1-29.6V125.14H114.61Z" fill="#197978"/><path d="M0,227.14l8.71-26.21h6.1l8.91,26.21H17.39L16.23,223H7.49l-1.2,4.13Zm8.79-9h6.06l-3.06-10.83Z" fill="#811739"/><path d="M29.4,227.14V200.93H41.19q4.28,0,6.41,2.15t2.14,6.46A7.52,7.52,0,0,1,48.41,214a6.83,6.83,0,0,1-3.54,2.63l5.42,10.53h-6.6l-4.64-9.43H35.3v9.43Zm5.9-21.35v7.07h5.4a3,3,0,0,0,2.36-.89,4.89,4.89,0,0,0,0-5.3,3,3,0,0,0-2.36-.88Z" fill="#811739"/><path d="M56.46,227.14V200.93h9.15c3.77,0,6.68,1,8.71,3q3.32,3.32,3.31,10.05t-3.31,10.05c-2,2-4.94,3.06-8.71,3.06Zm5.9-20.69v15.17h3.38a5.38,5.38,0,0,0,4.5-1.9c1-1.26,1.49-3.16,1.49-5.69a9,9,0,0,0-1.5-5.68,5.43,5.43,0,0,0-4.52-1.9Z" fill="#811739"/><path d="M84.49,227.14V200.93h5.9v26.21Z" fill="#811739"/><path d="M96.1,227.14l8.71-26.21h6.1l8.91,26.21h-6.33L112.33,223h-8.74l-1.2,4.13Zm8.79-9H111l-3.06-10.83Z" fill="#811739"/><path d="M138,227.14V200.93h6l8.65,16.75V200.93H158v26.21h-5.9l-8.71-16.49v16.49Z" fill="#811739"/><path d="M184.23,227.14H165.88V200.93h17.36V206H171.78v4.78h10.7v5.08h-10.7v6.19h12.45Z" fill="#811739"/><path d="M188.59,227.14l9.12-14-7.83-12.17H197l4.29,8,4.29-8h7L204.85,213,214,227.14h-7.22l-5.43-9.83-5.6,9.83Z" fill="#811739"/><path d="M239.72,200.93V218a9.27,9.27,0,0,1-3.31,7.62,11.07,11.07,0,0,1-13.35,0,9.25,9.25,0,0,1-3.32-7.62V200.93h5.9v16.53a6,6,0,0,0,1,3.82,3.65,3.65,0,0,0,3,1.29,3.72,3.72,0,0,0,3.09-1.29,6,6,0,0,0,1-3.82V200.93Z" fill="#811739"/><path d="M245.38,222.54l4.51-3.24q3.29,3.27,6.82,3.27a5.92,5.92,0,0,0,2.79-.66,2.59,2.59,0,0,0,1.62-2.36c0-1.22-.88-2-2.65-2.31l-4.9-.89q-6.76-1.22-6.76-7.21a8.31,8.31,0,0,1,2.95-6.85,10.26,10.26,0,0,1,6.69-2.1,12.78,12.78,0,0,1,10.4,5.05l-4.46,3.59a7.54,7.54,0,0,0-6.33-3.34,3.85,3.85,0,0,0-2.19.7,2.28,2.28,0,0,0-1.16,1.95c0,1.28,1.09,2.11,3.27,2.51l2.26.4a15.28,15.28,0,0,1,6.06,2.17,6.17,6.17,0,0,1,2.52,5.3q0,5.26-3.75,7.62a13,13,0,0,1-7.05,1.73A13.39,13.39,0,0,1,245.38,222.54Z" fill="#811739"/></svg>