<?xml version="1.0" encoding="utf-8"?>
<!-- Generator: Adobe Illustrator 25.0.0, SVG Export Plug-In . SVG Version: 6.00 Build 0)  -->
<svg version="1.1" id="Layer_1" xmlns="http://www.w3.org/2000/svg" xmlns:xlink="http://www.w3.org/1999/xlink" x="0px" y="0px"
	 viewBox="0 0 616.6 184.1" style="enable-background:new 0 0 616.6 184.1;" xml:space="preserve">
<style type="text/css">
	.st0{fill:#811739;}
	.st1{fill:#197978;}
</style>
<path class="st0" d="M175.9,103.3c-5.7-2.6-11.8-4.2-18-4.6H93.7V85.4v-51C93.7,17.6,83.3,9,74.6,4.8c-5.7-2.7-11.8-4.3-18-4.8H0
	v51.4c0,16.9,10.4,25.3,19.1,29.4c5.7,2.6,11.8,4.2,18,4.6h29.7V69.6h-29c-3.9-0.3-7.7-1.4-11.2-3c-6.5-3.2-9.5-8-9.5-15.2V15.8
	h38.5c3.9,0.4,7.7,1.5,11.3,3.2c6.6,3.3,9.6,8.2,9.6,15.5V102l0,0v12.6h80.6c3.9,0.3,7.7,1.4,11.2,3c6.5,3.2,9.5,8,9.5,15.2v35.6
	h-38.4c-3.9-0.4-7.7-1.5-11.3-3.2c-6.6-3.3-9.6-8.2-9.6-15.4v-24.6h-17.1v24.6c0,16.8,10.4,25.4,19.1,29.6c5.7,2.7,11.8,4.3,18,4.8
	H195v-51.4C195.1,115.9,184.6,107.4,175.9,103.3z"/>
<path class="st1" d="M138.9,0h-0.5c-6.2,0.5-12.3,2.1-18,4.8c-8.7,4.2-19.1,12.8-19.1,29.6v35.2h-0.1v15.8h56.6
	c6.2-0.4,12.3-1.9,18-4.6c8.7-4.1,19.1-12.6,19.1-29.4V0H138.9z M177.9,51.4c0,7.2-3,12-9.5,15.2c-3.5,1.6-7.3,2.6-11.1,3h-38.8
	V34.4c0-7.2,3.1-12.2,9.6-15.5c3.5-1.7,7.3-2.8,11.1-3.2h38.7L177.9,51.4z"/>
<path class="st1" d="M76.5,149.7c0,7.2-3,12.1-9.6,15.4c-3.5,1.7-7.3,2.8-11.1,3.2H17.1v-35.6c0-7.2,3-12,9.5-15.2
	c3.5-1.6,7.3-2.6,11.1-3h29.1V98.7H37.1c-6.2,0.4-12.3,2-18,4.6C10.4,107.4,0,115.9,0,132.7v51.4h56.6c6.2-0.5,12.3-2.1,18-4.8
	c8.7-4.2,19.1-12.8,19.1-29.6v-24.6H76.5V149.7z"/>
<path class="st0" d="M222.3,82.7l25.4-76.4h17.8l26,76.4H273l-3.3-12h-25.5l-3.5,12L222.3,82.7z M247.9,56.5h17.7L256.7,25
	L247.9,56.5z"/>
<path class="st0" d="M308,82.7V6.3h34.4c8.3,0,14.5,2.1,18.7,6.3c4.2,4.2,6.2,10.5,6.2,18.8c0.1,4.6-1.2,9.1-3.8,12.9
	c-2.5,3.6-6.1,6.3-10.3,7.6L369,82.7h-19.3l-13.5-27.4h-10.9v27.5H308z M325.2,20.5v20.6h15.7c3.1,0,5.4-0.9,6.9-2.6
	c1.5-1.7,2.3-4.3,2.3-7.7s-0.8-6-2.3-7.7c-1.5-1.7-3.8-2.6-6.9-2.6H325.2z"/>
<path class="st0" d="M386.9,82.7V6.3h26.7c11,0,19.5,3,25.4,8.9c6.4,6.4,9.7,16.2,9.7,29.3s-3.2,22.9-9.7,29.3
	c-5.9,5.9-14.4,8.9-25.4,8.9H386.9z M404.1,22.4v44.2h9.9c5.9,0,10.3-1.8,13.1-5.5c2.9-3.7,4.3-9.2,4.3-16.6
	c0-7.4-1.5-12.9-4.4-16.6c-2.9-3.7-7.3-5.5-13.1-5.5L404.1,22.4z"/>
<path class="st0" d="M468.7,82.7V6.3h17.2v76.4H468.7z"/>
<path class="st0" d="M502.5,82.7l25.4-76.4h17.8l26,76.4h-18.4l-3.4-12h-25.5l-3.5,12H502.5z M528.2,56.5h17.7L536.9,25L528.2,56.5z
	"/>
<path class="st0" d="M222.3,175.7V99.2h17.4l25.2,48.8V99.2h15.7v76.4h-17.2l-25.4-48.1v48.1H222.3z"/>
<path class="st0" d="M357,175.7h-53.5V99.2h50.6v14.8h-33.4V128h31.2v14.8h-31.2v18H357V175.7z"/>
<path class="st0" d="M369.8,175.7l26.6-41l-22.8-35.5h20.9l12.5,23.3l12.5-23.3H440l-22.9,35.3l26.6,41.2h-21.1L406.9,147
	l-16.3,28.7H369.8z"/>
<path class="st0" d="M518.9,99.2V149c0,9.6-3.2,17-9.7,22.2c-5.3,4.4-11.9,6.5-19.5,6.5c-7.7,0-14.1-2.2-19.4-6.5
	c-6.4-5.2-9.7-12.6-9.7-22.2V99.2h17.2v48.2c0,4.9,1,8.7,3,11.2c2,2.5,5,3.8,8.9,3.8c4,0,7-1.3,9-3.8c2-2.5,3-6.3,3-11.2V99.2H518.9
	z"/>
<path class="st0" d="M535.4,162.2l13.1-9.4c6.4,6.4,13,9.5,19.9,9.5c2.8,0,5.6-0.6,8.1-1.9c3.2-1.6,4.8-3.9,4.8-6.9
	c0-3.6-2.6-5.8-7.7-6.8l-14.3-2.6c-13.1-2.4-19.7-9.4-19.7-21c0-8.7,2.9-15.3,8.6-20c5-4.1,11.5-6.1,19.5-6.1
	c12.3,0,22.4,4.9,30.3,14.7l-13,10.5c-4.8-6.5-10.9-9.7-18.5-9.7c-2.3,0-4.5,0.7-6.4,2c-2.3,1.5-3.4,3.4-3.4,5.7
	c0,3.7,3.2,6.2,9.5,7.3l6.6,1.2c7.9,1.4,13.8,3.6,17.7,6.3c4.9,3.6,7.3,8.7,7.3,15.5c0,10.2-3.6,17.7-10.9,22.2
	c-5.3,3.4-12.2,5-20.6,5C554.3,177.8,544,172.6,535.4,162.2z"/>
</svg>
