<svg id="Layer_1" data-name="Layer 1" xmlns="http://www.w3.org/2000/svg" xmlns:xlink="http://www.w3.org/1999/xlink" viewBox="0 0 300 180"><defs><style>.cls-1{fill:none;clip-rule:evenodd;}.cls-2{fill:#361f4f;}.cls-2,.cls-3,.cls-9{fill-rule:evenodd;}.cls-3{fill:#010101;}.cls-4{clip-path:url(#clip-path);}.cls-5{fill:url(#linear-gradient);}.cls-6{fill:#fff;}.cls-7{fill:#9ac43b;}.cls-8,.cls-9{fill:#e72369;}</style><clipPath id="clip-path"><path class="cls-1" d="M146.17,14.58H286.59v2.75l-3.72,7L285.66,41l-4,6.87v4.9h5.83V81.92l-11.69,16.5,4.12.34,5.66.44,3.18.26.06-.07v.08a.49.49,0,0,0,.3,0c.24,0,.49.46.75,1.31a7.9,7.9,0,0,1,.83,2.49,14.73,14.73,0,0,1,.09,4.18,4.62,4.62,0,0,1-1.15,2.63l-6.38,7.59a23.33,23.33,0,0,1,2.25,1.53,26.17,26.17,0,0,1,4.72,4.68,23,23,0,0,1,3,5.06,30.2,30.2,0,0,1,1.6,4.86,24.65,24.65,0,0,1,.61,4.08,21.42,21.42,0,0,1,0,2.67,11,11,0,0,1-1.57,4.35,12.45,12.45,0,0,1-2.3,2.82l-.28.27L263,173.7l-.24.21-.24.21-.25.21-.26.2-.26.2-.28.2-.29.19-.29.19-.31.19-.32.18-.33.17-.33.17-.35.16-.36.16-.37.16-.38.15-.39.14-.4.14-.41.13-.42.13-.43.13-.44.11-.45.12-.46.1-.47.08-.49.08-.5.07-.51.06-.52,0-.53,0-.55,0h-1.7l-.59,0-.6,0-.61,0-.63,0-.62-.06-.61-.08-.6-.08-.59-.09-.58-.1-.56-.1-.55-.12-.54-.13-.52-.13-.52-.15-.5-.15-.49-.17-.48-.17-.46-.18L239,176l-.44-.2-.42-.21-.42-.21-.41-.21-.4-.22-.38-.23-.38-.23-.36-.23-.36-.23-.08-.06-2.6,3.12-.05,0-.06,0h-.07l-.07,0-.08-.06-.08-.07-.1-.08-.11-.1-.12-.11-.13-.12-.14-.13-.15-.14-.16-.16-.18-.16-.19-.16-.22-.16-.22-.16-.25-.16-.26-.16-.29-.16-.29-.16-.32-.16-.34-.15-.35-.15-.38-.15-.39-.13-.42-.14-.43-.13-.46-.12-.23-.06-.24-.06-.25,0-.25-.05-.26,0-.26,0-.27,0-.27,0-.28,0-.29,0h-.29l-.3,0h-1.9l-.34,0-.34,0-.35,0-.36,0-.37.05-.37,0-.38.06-.38,0-.4.07-.4.06-.4.08-.41.08-.42.08-.43.09-.43.1-.44.1-.45.11-.46.12-.46.13-.47.14-.48.14-.49.15-.49.16-.51.17-.51.17-.52.19-.52.19-.54.2-.54.21-.55.21-.25-.06-.25-.09-.26-.11-.27-.14-.27-.16-.29-.19-.28-.21-.3-.23-.3-.25-.29-.27-.28-.27-.28-.28-.27-.3-.27-.3-.27-.32-.25-.32-.25-.34-.24-.34-.23-.35-.22-.35-.2-.36-.2-.37-.18-.38-.18-.39-.15-.38,0-.13-1,2-.49-.34-.29-.06-.29-.07-.28-.06-.29-.06-.29-.05-.29,0-.29-.05-.3,0-.29,0-.29,0-.3,0-.29,0-.3,0-.29,0-.3,0h-4.12l-.29,0h-.28l-.29,0-.29,0-.28,0-.29,0-.28,0-.29,0-.28,0-.28,0-.28,0-.28,0-.27,0-.28,0-.28,0-.27,0-.27,0-.28.05-.27.05-.27,0-.27,0-.26.05-.26.05-.26,0-.26.05-.26,0-.25.05-.25.05-.25,0-.24.05-.24,0-.24.05L183,172l-.24.06-.23,0-.38.07-.36.05h-.34l-.32,0-.3-.06-.13,0,0,.1,0,.08-.05,0-.06,0h-.07l-.07,0-.07,0-.09-.07-.1-.08L180,172l-.12-.11-.13-.12-.14-.13-.15-.14-.16-.16-.18-.16-.19-.16-.21-.16-.23-.16-.25-.16-.26-.16-.28-.17-.3-.16-.32-.15-.33-.16-.36-.14-.38-.15-.39-.14-.42-.13-.43-.13-.45-.13-.24-.06-.24,0-.25-.05-.25-.05-.25,0-.27,0-.27,0-.27,0-.28,0-.29,0-.29,0h-2.2l-.33,0-.35,0-.35,0-.36,0-.37,0-.37,0-.38.05-.38.06-.4.06-.39.07-.41.07-.41.08-.42.09-.43.09-.43.09-.44.11-.45.11-.45.12-.47.13-.47.13-.48.15-.49.15-.49.16-.5.17-.52.17-.51.18-.53.2-.53.2-.55.2-.55.22-.24-.07-.26-.08-.26-.12-.27-.13-.27-.16-.28-.19-.29-.21-.3-.24-.29-.25-.29-.26-.29-.27-.28-.29-.27-.29-.27-.3-.26-.32-.26-.32-.25-.34-.24-.34-.23-.35-.21-.35-.21-.37-.2-.37-.18-.37-.18-.39-.15-.38-.13-.38-.11-.37-.08-.37-.06-.36,0-.35v-.34l.09-17.06H148l.12,21.8H105.68l1.48,3.78,0,.07,0,.07,0,.07v2.49h-.75l-1.15-2.81h-.41v2.81h-.75l-.55-1.27v.11l0,.1,0,.09,0,.09,0,.08,0,.08,0,.08-.05.07,0,.07,0,.07-.06.06,0,0-.06.06-.06,0-.07,0-.06,0-.07,0-.07,0-.07,0-.08,0-.08,0-.07,0h-.08l-.08,0h-.68l-.08,0h-.08l-.08,0-.08,0-.07,0-.08,0-.07,0-.06,0-.07,0-.06,0-.06,0-.06-.06-.06,0,0-.06,0-.07,0-.07,0-.07,0-.08,0-.08-.67-1.45v2.25h-.75l-.61-1.27v.63l0,.06,0,.05,0,0,0,0,0,0,0,0,0,0,0,0,0,0,0,0,0,0,0,0,0,0,0,0,0,0,0,0-.05,0h-2.4l-.61-1.19v.55l0,.06,0,.05,0,0,0,0,0,0,0,0,0,0,0,0,0,0,0,0,0,0,0,0,0,0,0,0,0,0-.05,0,0,0H91.9l-.63-1.15v1.15H88.72l0,0h-.05l0,0,0,0,0,0,0,0,0,0,0,0,0,0,0,0,0,0,0,0,0,0-.51-.88v0l0,.1,0,.09,0,.09,0,.08,0,.09,0,.07,0,.07,0,.07,0,.07,0,.06-.05.06,0,0,0,.05-.06,0,0,.05-.06,0-.06,0-.06,0-.07,0-.06,0-.07,0-.07,0-.07,0H85.34v1.16h-.75l-.72-1.16h-.65l0,0h0l-.05,0,0,0,0,0,0,0,0,0,0,0,0,0,0,0,0,0,0,0,0,0,0,0-1.25-2v2.42h-2l-.07,0h-.07l-.06,0-.07,0-.06,0-.06,0-.06,0-.05,0-.06,0,0,0,0,0,0,0,0-.05,0,0,0-.05-.68-1v.25l0,.11,0,.1,0,.09,0,.09,0,.08,0,.08,0,.08,0,.07,0,.07-.05.07,0,.06-.06,0-.06.06-.06,0-.06,0-.07,0-.07,0L77,174l-.07,0-.08,0-.07,0-.08,0h-.08l-.08,0h-.68l-.08,0h-.08l-.08,0-.08,0-.07,0-.07,0-.07,0-.07,0-.07,0-.06,0-.06,0-.06-.06,0,0-.06-.06,0-.07-.67-1v.17l0,.1,0,.09,0,.09,0,.08,0,.09,0,.07,0,.07,0,.07,0,.07,0,.06,0,.06-.05,0,0,.05-.06,0,0,.05-.06,0-.06,0-.06,0-.07,0-.06,0-.07,0-.07,0-.07,0H71l-.45-.61v.61H68l0,0h0l0,0,0,0,0,0,0,0,0,0,0,0,0,0,0,0,0,0-.71-.91v1.25h-.75l-.68-.85v.85h-.75l-.62-.76v.76H61.52l0,0h0l0,0,0,0,0,0,0,0,0,0,0,0,0,0,0,0-.66-.78v.39l0,.05v.06l0,.05,0,0,0,0,0,0,0,0,0,0,0,0,0,0,0,0,0,0,0,0,0,0,0,0,0,0,0,0-.05,0H57.5l-.57-.65v.65h-.81l0,0h0L56,174l0,0-.05,0,0,0,0,0,0,0,0,0,0,0,0,0-1.34-1.5v1.83h-.75l-1.49-1.61H52l-.08.8h-.46l-.63-.67-.06.67h-.47L25.65,147.14V147l-.81-.86v-.58h1v-.06l-.75-.8v-.58H26l.11-1h.58l.77.85.1-.85h0l-2.74-3v-3.4h6.33l-2.84-3.41V123a7.79,7.79,0,0,1,1.05-4.29l-4.46-5.93v-3.4H31.8l-7-10.07V76.57L4.31,43.27l.07-.07L2.65,40.39A10.27,10.27,0,0,1,2,36.78v-.51A1.35,1.35,0,0,1,3.39,35h4L2.44,26.54a2.25,2.25,0,0,1-.39-1.37v-.1L2,25H2V4.27A2.4,2.4,0,0,1,4.42,2H19.85A2,2,0,0,1,21.7,3.12l2.93,6.32V6L23.41,3.32a.36.36,0,0,1,0-.11V2.46c0-.17.13-.27.32-.27H27a.34.34,0,0,1,.31.17s0,0,0,0v0l.92,2.09v-2a.32.32,0,0,1,.29-.3h.83a.31.31,0,0,1,.28.18l1.24,2.87h.9V2.51a.33.33,0,0,1,.32-.3h.8a.33.33,0,0,1,.29.19,0,0,0,0,1,0,0v0l6,14.32L42,3a.78.78,0,0,1,.76-.56h2.69a.82.82,0,0,1,.75.44.19.19,0,0,1,0,.07L50.4,14.1V3A.58.58,0,0,1,51,2.38h2.52a.88.88,0,0,1,.8.54l3.08,9L57.17,3a.56.56,0,0,1,.57-.58h1.61a.63.63,0,0,1,.54.36h0l1.87,5.78V3a.58.58,0,0,1,.59-.58h2.52a.88.88,0,0,1,.8.54l3.09,9.23L68.53,3a.56.56,0,0,1,.57-.58h1.61a.63.63,0,0,1,.54.36v0l1.87,6.61V3a.56.56,0,0,1,.56-.58h1.57a.55.55,0,0,1,.53.46l11.68,44h.42L80,16.82s0,0,0-.05L77.16,3c-.07-.3.17-.54.53-.54h1.8c.24,0,.43.18.5.55l2.45,9.77,1.63-9.86c.07-.31.19-.46.55-.46h1.82a.53.53,0,0,1,.54.33s0,0,0,.06l1.36,6V3a.54.54,0,0,1,.58-.55h6.26a.55.55,0,0,1,.57.43v0l1.36,7.05V3.06a.61.61,0,0,1,.6-.6h4.17a3.1,3.1,0,0,1,3.22,2.37,1.57,1.57,0,0,1,0,.23l5.27,33h.37L107,14.25a4.26,4.26,0,0,1-.08-.8v0a.7.7,0,0,1,.68-.72H108L107.24,8V7.91h0a9.09,9.09,0,0,1-.08-1.24l0-.75,0-.31a3.09,3.09,0,0,1,1-2.35,3.72,3.72,0,0,1,2.76-1h.65a3.74,3.74,0,0,1,3.71,3.46l1.32,10.78L119.33,3a.78.78,0,0,1,.77-.56h2.69a.79.79,0,0,1,.78.56l2.79,13.79a.25.25,0,0,1,0,.08v0l3.08,35.86h.45V46.9h.23l-2.41-30v0a.15.15,0,0,1,0-.07V3.06a.61.61,0,0,1,.6-.6h4.17a3,3,0,0,1,3.29,3l.54,11.35,0,.06a.18.18,0,0,1,0,.11v0l1.42,29.9H139l-.25-5.9.17-1L137.37,3.1V3a.7.7,0,0,1,.73-.65h1.31a.79.79,0,0,1,.74.46l1.43,4.22a.1.1,0,0,0,.1.05l.07-.05,1.46-4.22a.7.7,0,0,1,.63-.46h1.35a.7.7,0,0,1,.73.66v0l.18,18.23h.07l0,.25,0-4.22Z"/></clipPath><linearGradient id="linear-gradient" x1="148.74" y1="1.95" x2="148.74" y2="178.05" gradientUnits="userSpaceOnUse"><stop offset="0" stop-color="#2e1d4a"/><stop offset="1" stop-color="#6f2476"/></linearGradient></defs><path class="cls-2" d="M284.8,24.67l2.8,16.68-4.06,7v2.54h5.84v31.6L279.22,96.84l.88.07,5.65.45,2.2.17,3.31-4.22-.46,5.08a5,5,0,0,1,.8,1.6,10.39,10.39,0,0,1,.94,2.87,16.89,16.89,0,0,1,.12,4.71,6.46,6.46,0,0,1-1.59,3.66l-5,6,.62.47a27.59,27.59,0,0,1,5.06,5,24.84,24.84,0,0,1,3.21,5.47,32.21,32.21,0,0,1,1.69,5.17,25.16,25.16,0,0,1,.66,4.39,20.61,20.61,0,0,1,0,2.94,12.74,12.74,0,0,1-1.81,5.11,14.43,14.43,0,0,1-2.63,3.25l-.31.28-28.54,26-.28.24-.28.23-.29.23-.3.23-.3.21-.33.22-.34.22-.37.22-.36.2-.37.2-.37.19-.39.18-.39.17-.41.17-.41.16-.43.16-.43.15-.44.15-.45.13-.46.14-.49.12-.47.12-.51.11-.55.1-.53.09-.55.07-.55.06-.56.05-.57,0-.58,0h-1.81l-.62,0-.62,0-.66,0-.64-.06-.67-.06-.64-.08-.63-.08-.62-.1-.62-.11-.6-.11-.58-.13-.58-.13-.57-.15-.55-.16-.55-.17-.53-.17-.5-.18-.53-.21-.48-.2-.5-.23-.46-.22-.45-.23-.44-.23-.42-.24-.26-.15-1.63,2-.39.37-.75.3-.78,0-.55-.21-.32-.23-.18-.14-.11-.09-.12-.12-.14-.12-.14-.13-.31-.29-.15-.14-.13-.12-.13-.11-.15-.12-.17-.12-.2-.13-.22-.13-.23-.13-.25-.14-.27-.13-.28-.12-.3-.13-.33-.13-.35-.12-.37-.12-.39-.12-.42-.11-.2,0-.2-.05-.2,0-.22,0-.22,0-.23,0-.23,0-.24,0-.25,0-.26,0h-2.27l-.31,0-.32,0-.33,0-.33,0-.35,0-.35,0-.36,0-.36.05-.37.06-.38.07-.39.07-.4.08-.4.08-.41.08L216,176l-.41.1-.43.11-.43.11-.45.12-.45.13-.46.14-.47.15-.48.15-.48.16-.5.17-.5.18-.51.19-.52.19-.53.2-1.1.44-.9-.24-.39-.13-.38-.17-.37-.18-.36-.22-.36-.23-.36-.26-.35-.28-.34-.29-.33-.3-.32-.31-.32-.32-.31-.33-.3-.35-.31-.36-.27-.35-.29-.38-.06-.1-.35.71-2-1.35-.21,0-.27-.06-.26-.05-.27-.05-.27,0-.27,0-.27,0-.27,0-.27,0-.27,0-.27,0-.27,0-.28,0-.27,0H192l-.28,0h-.27l-.28,0-.27,0-.28,0-.27,0-.27,0-.27,0-.27,0-.27,0-.54.07-.26,0-.27,0-.26,0-.26,0-.26,0-.53.09-.52.1-.78.14-.75.15-.73.15-.47.09-.7.16-.47.1-.53.06h-.53l-.22,0-.35.13-.76,0-.56-.22-.32-.22-.18-.14-.11-.1-.12-.11-.14-.12-.14-.13-.31-.29-.15-.15-.13-.11-.13-.11-.15-.12-.17-.12-.2-.13L177,172l-.24-.13-.25-.14-.26-.13-.29-.13-.3-.12-.33-.13-.35-.12-.37-.12-.39-.12-.42-.12-.19,0-.21-.05-.2,0-.21,0-.23,0-.23,0-.23,0-.24,0-.25,0-.26,0h-.26l-.27,0h-1.74l-.31,0-.32,0-.33,0-.33,0-.35,0-.35,0-.35.05-.37,0-.37.06-.38.07-.39.07-.4.07-.4.08-.4.09-.41.09-.42.1-.43.1-.43.12-.45.12-.45.13-.46.14-.47.14-.47.16-.49.16-.49.17-.51.18-.51.19-.52.19-.53.2-1.1.43-.9-.23-.39-.14-.38-.16-.37-.19-.36-.21-.36-.24-.35-.26-.35-.27-.35-.29-.33-.3-.32-.31-.32-.32-.31-.33-.3-.35-.31-.37-.27-.34-.17-.24v.28H108.4l.5,1.28,0,.15,0,.17,0,.18,0,.18,0,.17v4.35H103v0h0l-.16,0-.15,0-.14,0h-.92l-.15,0-.15,0-.09,0H97.89l0,0H94.35l0,0-.17,0H88.67l-.12,0-.11,0-.12,0-.12,0-.14-.05-.14,0-.13-.06,0,0-.15.06-.16.06-.15.05-.09,0v1.27H83.57l-.73-1.15H79.31l-.13,0-.15,0-.1,0-.13,0-.15,0-.16-.06-.14-.05-.14-.06-.13-.07h0l-.16.09-.18.08-.16.07-.17.05-.15,0-.15,0L77,176l-.15,0-.15,0h-.92l-.15,0-.14,0-.16,0-.15,0-.15,0-.17-.05-.17-.07-.17-.08-.15-.09-.13.07-.17.07-.17.06-.15.05-.14,0-.14,0-.15,0-.15,0-.14,0H61.47l-.12,0-.11,0-.12,0-.12,0-.14-.05-.14,0h0l-.1,0-.14,0-.13,0-.11,0-.13,0-.12,0H56.14v0H52.72l-.74-.81H49.46L23.72,147.8v-.15l-.73-.78V143.7h.21v-1.44H24.3L23,140.76v-6h4.22l-.73-.88V123a10.81,10.81,0,0,1,.72-4.1L23,113.42v-5.88h5.22L23,99.91V77.09L2,43,2,42.93,1,41.21.91,41a12.12,12.12,0,0,1-.77-4.26v-.51a3.21,3.21,0,0,1,3.25-3.09h.77L.88,27.54A4.09,4.09,0,0,1,.2,25.43,1.84,1.84,0,0,1,.14,25V4.27A4.26,4.26,0,0,1,4.42.09H19.85a3.9,3.9,0,0,1,2.38.8A2.25,2.25,0,0,1,23.71.34H27a2.2,2.2,0,0,1,.81.15,2.2,2.2,0,0,1,.73-.13h.83a2.17,2.17,0,0,1,1.37.49A2.12,2.12,0,0,1,32.09.36h.8a2.19,2.19,0,0,1,2,1.21,1.42,1.42,0,0,1,.08.18l3.68,8.76,1.6-7.87A2.63,2.63,0,0,1,42.78.59h2.69a2.67,2.67,0,0,1,2.44,1.55,1.8,1.8,0,0,1,.08.21l.55,1.47V3A2.44,2.44,0,0,1,51,.53h2.52a2.83,2.83,0,0,1,2.2,1.1,2.4,2.4,0,0,1,2-1.1h1.61a2.45,2.45,0,0,1,1.49.52A2.42,2.42,0,0,1,62.35.53h2.52a2.83,2.83,0,0,1,2.2,1.1,2.4,2.4,0,0,1,2-1.1h1.61a2.5,2.5,0,0,1,1.53.54A2.4,2.4,0,0,1,73.68.59h1.57a2.4,2.4,0,0,1,1.18.32A2.49,2.49,0,0,1,77.69.58h1.8a2.38,2.38,0,0,1,2.31,2l.27,1.09.18-1.1v0A2.31,2.31,0,0,1,84.62.58h1.82a2.58,2.58,0,0,1,1.23.31A2.54,2.54,0,0,1,88.93.56h6.26a2.47,2.47,0,0,1,1.32.37A2.45,2.45,0,0,1,97.72.61h4.2a5.25,5.25,0,0,1,4.27,2.1,4.4,4.4,0,0,1,.66-.77A5.49,5.49,0,0,1,110.91.41h.64a5.62,5.62,0,0,1,3.94,1.64A5.55,5.55,0,0,1,117,5l.49-2.37A2.62,2.62,0,0,1,120.1.59h2.69a2.64,2.64,0,0,1,2.6,2.05L125.86,5V3.06A2.46,2.46,0,0,1,128.31.61h4.2a5.55,5.55,0,0,1,3.37,1.15A2.59,2.59,0,0,1,138.1.53h1.31a2.62,2.62,0,0,1,2.26,1.25A2.55,2.55,0,0,1,143.84.53h1.35A2.55,2.55,0,0,1,147.77,3l.1,9.69H288.44v5.07Z"/><path class="cls-3" d="M146.17,14.58H286.59v2.75l-3.72,7L285.66,41l-4,6.87v4.9h5.83V81.92l-11.69,16.5,4.12.34,5.66.44,3.18.26.06-.07v.08a.49.49,0,0,0,.3,0c.24,0,.49.46.75,1.31a7.9,7.9,0,0,1,.83,2.49,14.73,14.73,0,0,1,.09,4.18,4.62,4.62,0,0,1-1.15,2.63l-6.38,7.59a23.33,23.33,0,0,1,2.25,1.53,26.17,26.17,0,0,1,4.72,4.68,23,23,0,0,1,3,5.06,30.2,30.2,0,0,1,1.6,4.86,24.65,24.65,0,0,1,.61,4.08,21.42,21.42,0,0,1,0,2.67,11,11,0,0,1-1.57,4.35,12.45,12.45,0,0,1-2.3,2.82l-.28.27L263,173.7l-.24.21-.24.21-.25.21-.26.2-.26.2-.28.2-.29.19-.29.19-.31.19-.32.18-.33.17-.33.17-.35.16-.36.16-.37.16-.38.15-.39.14-.4.14-.41.13-.42.13-.43.13-.44.11-.45.12-.46.1-.47.08-.49.08-.5.07-.51.06-.52,0-.53,0-.55,0h-1.7l-.59,0-.6,0-.61,0-.63,0-.62-.06-.61-.08-.6-.08-.59-.09-.58-.1-.56-.1-.55-.12-.54-.13-.52-.13-.52-.15-.5-.15-.49-.17-.48-.17-.46-.18L239,176l-.44-.2-.42-.21-.42-.21-.41-.21-.4-.22-.38-.23-.38-.23-.36-.23-.36-.23-.08-.06-2.6,3.12-.05,0-.06,0h-.07l-.07,0-.08-.06-.08-.07-.1-.08-.11-.1-.12-.11-.13-.12-.14-.13-.15-.14-.16-.16-.18-.16-.19-.16-.22-.16-.22-.16-.25-.16-.26-.16-.29-.16-.29-.16-.32-.16-.34-.15-.35-.15-.38-.15-.39-.13-.42-.14-.43-.13-.46-.12-.23-.06-.24-.06-.25,0-.25-.05-.26,0-.26,0-.27,0-.27,0-.28,0-.29,0h-.29l-.3,0h-1.9l-.34,0-.34,0-.35,0-.36,0-.37.05-.37,0-.38.06-.38,0-.4.07-.4.06-.4.08-.41.08-.42.08-.43.09-.43.1-.44.1-.45.11-.46.12-.46.13-.47.14-.48.14-.49.15-.49.16-.51.17-.51.17-.52.19-.52.19-.54.2-.54.21-.55.21-.25-.06-.25-.09-.26-.11-.27-.14-.27-.16-.29-.19-.28-.21-.3-.23-.3-.25-.29-.27-.28-.27-.28-.28-.27-.3-.27-.3-.27-.32-.25-.32-.25-.34-.24-.34-.23-.35-.22-.35-.2-.36-.2-.37-.18-.38-.18-.39-.15-.38,0-.13-1,2-.49-.34-.29-.06-.29-.07-.28-.06-.29-.06-.29-.05-.29,0-.29-.05-.3,0-.29,0-.29,0-.3,0-.29,0-.3,0-.29,0-.3,0h-4.12l-.29,0h-.28l-.29,0-.29,0-.28,0-.29,0-.28,0-.29,0-.28,0-.28,0-.28,0-.28,0-.27,0-.28,0-.28,0-.27,0-.27,0-.28.05-.27.05-.27,0-.27,0-.26.05-.26.05-.26,0-.26.05-.26,0-.25.05-.25.05-.25,0-.24.05-.24,0-.24.05L183,172l-.24.06-.23,0-.38.07-.36.05h-.34l-.32,0-.3-.06-.13,0,0,.1,0,.08-.05,0-.06,0h-.07l-.07,0-.07,0-.09-.07-.1-.08L180,172l-.12-.11-.13-.12-.14-.13-.15-.14-.16-.16-.18-.16-.19-.16-.21-.16-.23-.16-.25-.16-.26-.16-.28-.17-.3-.16-.32-.15-.33-.16-.36-.14-.38-.15-.39-.14-.42-.13-.43-.13-.45-.13-.24-.06-.24,0-.25-.05-.25-.05-.25,0-.27,0-.27,0-.27,0-.28,0-.29,0-.29,0h-2.2l-.33,0-.35,0-.35,0-.36,0-.37,0-.37,0-.38.05-.38.06-.4.06-.39.07-.41.07-.41.08-.42.09-.43.09-.43.09-.44.11-.45.11-.45.12-.47.13-.47.13-.48.15-.49.15-.49.16-.5.17-.52.17-.51.18-.53.2-.53.2-.55.2-.55.22-.24-.07-.26-.08-.26-.12-.27-.13-.27-.16-.28-.19-.29-.21-.3-.24-.29-.25-.29-.26-.29-.27-.28-.29-.27-.29-.27-.3-.26-.32-.26-.32-.25-.34-.24-.34-.23-.35-.21-.35-.21-.37-.2-.37-.18-.37-.18-.39-.15-.38-.13-.38-.11-.37-.08-.37-.06-.36,0-.35v-.34l.09-17.06H148l.12,21.8H105.68l1.48,3.78,0,.07,0,.07,0,.07v2.49h-.75l-1.15-2.81h-.41v2.81h-.75l-.55-1.27v.11l0,.1,0,.09,0,.09,0,.08,0,.08,0,.08-.05.07,0,.07,0,.07-.06.06,0,0-.06.06-.06,0-.07,0-.06,0-.07,0-.07,0-.07,0-.08,0-.08,0-.07,0h-.08l-.08,0h-.68l-.08,0h-.08l-.08,0-.08,0-.07,0-.08,0-.07,0-.06,0-.07,0-.06,0-.06,0-.06-.06-.06,0,0-.06,0-.07,0-.07,0-.07,0-.08,0-.08-.67-1.45v2.25h-.75l-.61-1.27v.63l0,.06,0,.05,0,0,0,0,0,0,0,0,0,0,0,0,0,0,0,0,0,0,0,0,0,0,0,0,0,0,0,0-.05,0h-2.4l-.61-1.19v.55l0,.06,0,.05,0,0,0,0,0,0,0,0,0,0,0,0,0,0,0,0,0,0,0,0,0,0,0,0,0,0-.05,0,0,0H91.9l-.63-1.15v1.15H88.72l0,0h-.05l0,0,0,0,0,0,0,0,0,0,0,0,0,0,0,0,0,0,0,0,0,0-.51-.88v0l0,.1,0,.09,0,.09,0,.08,0,.09,0,.07,0,.07,0,.07,0,.07,0,.06-.05.06,0,0,0,.05-.06,0,0,.05-.06,0-.06,0-.06,0-.07,0-.06,0-.07,0-.07,0-.07,0H85.34v1.16h-.75l-.72-1.16h-.65l0,0h0l-.05,0,0,0,0,0,0,0,0,0,0,0,0,0,0,0,0,0,0,0,0,0,0,0-1.25-2v2.42h-2l-.07,0h-.07l-.06,0-.07,0-.06,0-.06,0-.06,0-.05,0-.06,0,0,0,0,0,0,0,0-.05,0,0,0-.05-.68-1v.25l0,.11,0,.1,0,.09,0,.09,0,.08,0,.08,0,.08,0,.07,0,.07-.05.07,0,.06-.06,0-.06.06-.06,0-.06,0-.07,0-.07,0L77,174l-.07,0-.08,0-.07,0-.08,0h-.08l-.08,0h-.68l-.08,0h-.08l-.08,0-.08,0-.07,0-.07,0-.07,0-.07,0-.07,0-.06,0-.06,0-.06-.06,0,0-.06-.06,0-.07-.67-1v.17l0,.1,0,.09,0,.09,0,.08,0,.09,0,.07,0,.07,0,.07,0,.07,0,.06,0,.06-.05,0,0,.05-.06,0,0,.05-.06,0-.06,0-.06,0-.07,0-.06,0-.07,0-.07,0-.07,0H71l-.45-.61v.61H68l0,0h0l0,0,0,0,0,0,0,0,0,0,0,0,0,0,0,0,0,0-.71-.91v1.25h-.75l-.68-.85v.85h-.75l-.62-.76v.76H61.52l0,0h0l0,0,0,0,0,0,0,0,0,0,0,0,0,0,0,0-.66-.78v.39l0,.05v.06l0,.05,0,0,0,0,0,0,0,0,0,0,0,0,0,0,0,0,0,0,0,0,0,0,0,0,0,0,0,0-.05,0H57.5l-.57-.65v.65h-.81l0,0h0L56,174l0,0-.05,0,0,0,0,0,0,0,0,0,0,0,0,0-1.34-1.5v1.83h-.75l-1.49-1.61H52l-.08.8h-.46l-.63-.67-.06.67h-.47L25.65,147.14V147l-.81-.86v-.58h1v-.06l-.75-.8v-.58H26l.11-1h.58l.77.85.1-.85h0l-2.74-3v-3.4h6.33l-2.84-3.41V123a7.79,7.79,0,0,1,1.05-4.29l-4.46-5.93v-3.4H31.8l-7-10.07V76.57L4.31,43.27l.07-.07L2.65,40.39A10.27,10.27,0,0,1,2,36.78v-.51A1.35,1.35,0,0,1,3.39,35h4L2.44,26.54a2.25,2.25,0,0,1-.39-1.37v-.1L2,25H2V4.27A2.4,2.4,0,0,1,4.42,2H19.85A2,2,0,0,1,21.7,3.12l2.93,6.32V6L23.41,3.32a.36.36,0,0,1,0-.11V2.46c0-.17.13-.27.32-.27H27a.34.34,0,0,1,.31.17s0,0,0,0v0l.92,2.09v-2a.32.32,0,0,1,.29-.3h.83a.31.31,0,0,1,.28.18l1.24,2.87h.9V2.51a.33.33,0,0,1,.32-.3h.8a.33.33,0,0,1,.29.19,0,0,0,0,1,0,0v0l6,14.32L42,3a.78.78,0,0,1,.76-.56h2.69a.82.82,0,0,1,.75.44.19.19,0,0,1,0,.07L50.4,14.1V3A.58.58,0,0,1,51,2.38h2.52a.88.88,0,0,1,.8.54l3.08,9L57.17,3a.56.56,0,0,1,.57-.58h1.61a.63.63,0,0,1,.54.36h0l1.87,5.78V3a.58.58,0,0,1,.59-.58h2.52a.88.88,0,0,1,.8.54l3.09,9.23L68.53,3a.56.56,0,0,1,.57-.58h1.61a.63.63,0,0,1,.54.36v0l1.87,6.61V3a.56.56,0,0,1,.56-.58h1.57a.55.55,0,0,1,.53.46l11.68,44h.42L80,16.82s0,0,0-.05L77.16,3c-.07-.3.17-.54.53-.54h1.8c.24,0,.43.18.5.55l2.45,9.77,1.63-9.86c.07-.31.19-.46.55-.46h1.82a.53.53,0,0,1,.54.33s0,0,0,.06l1.36,6V3a.54.54,0,0,1,.58-.55h6.26a.55.55,0,0,1,.57.43v0l1.36,7.05V3.06a.61.61,0,0,1,.6-.6h4.17a3.1,3.1,0,0,1,3.22,2.37,1.57,1.57,0,0,1,0,.23l5.27,33h.37L107,14.25a4.26,4.26,0,0,1-.08-.8v0a.7.7,0,0,1,.68-.72H108L107.24,8V7.91h0a9.09,9.09,0,0,1-.08-1.24l0-.75,0-.31a3.09,3.09,0,0,1,1-2.35,3.72,3.72,0,0,1,2.76-1h.65a3.74,3.74,0,0,1,3.71,3.46l1.32,10.78L119.33,3a.78.78,0,0,1,.77-.56h2.69a.79.79,0,0,1,.78.56l2.79,13.79a.25.25,0,0,1,0,.08v0l3.08,35.86h.45V46.9h.23l-2.41-30v0a.15.15,0,0,1,0-.07V3.06a.61.61,0,0,1,.6-.6h4.17a3,3,0,0,1,3.29,3l.54,11.35,0,.06a.18.18,0,0,1,0,.11v0l1.42,29.9H139l-.25-5.9.17-1L137.37,3.1V3a.7.7,0,0,1,.73-.65h1.31a.79.79,0,0,1,.74.46l1.43,4.22a.1.1,0,0,0,.1.05l.07-.05,1.46-4.22a.7.7,0,0,1,.63-.46h1.35a.7.7,0,0,1,.73.66v0l.18,18.23h.07l0,.25,0-4.22Z"/><g class="cls-4"><rect class="cls-5" x="2" y="1.95" width="293.49" height="176.11"/></g><path class="cls-6" d="M24.81,58.48V52.77h5.87v5.71Zm0,5.87V58.48h5.87v5.87Zm0,5.86V64.35h5.87v5.86Zm0,5.84V70.21h5.87v5.84Zm0,5.87V76.05h5.87v5.87Zm0,5.83V81.92h5.87v5.83Zm0,5.87V87.75h5.87v5.87Zm0,5.71V93.62h5.87v5.71Zm0-46.56V46.9h5.87v5.87Zm5.87,46.56V93.62h5.83v5.71Zm5.83,0v5.78H30.68V99.33ZM30.68,52.77V46.9h5.83v5.87Zm5.83,46.56V93.62h5.87v5.71Zm5.87,0v5.78H36.51V99.33ZM36.51,52.77V46.9h5.87v5.87Zm5.87,5.71V52.77H48.1v5.71Zm0,5.87V58.48H48.1v5.87Zm0,5.86V64.35H48.1v5.86Zm0,11.71V76.05H48.1v5.87Zm0,5.83V81.92H48.1v5.83Zm0,5.87V87.75H48.1v5.87Zm0,5.71V93.62H48.1v5.71Zm5.72,0v5.78H42.38V99.33ZM42.38,52.77V46.9H48.1v5.87Zm5.72,5.71V52.77H54v5.71Zm0,5.87V58.48H54v5.87Zm0,5.86V64.35H54v5.86Zm0,11.71V76.05H54v5.87Zm0,5.83V81.92H54v5.83Zm0,5.87V87.75H54v5.87Zm0,5.71V93.62H54v5.71Zm5.86,0v5.78H48.1V99.33Zm0-40.85V52.77h5.87v5.71Zm0,5.87V58.48h5.87v5.87Zm0,5.86V64.35h5.87v5.86Zm0,11.71V76.05h5.87v5.87Zm0,5.83V81.92h5.87v5.83Zm0,5.87V87.75h5.87v5.87Zm0,5.71V93.62h5.87v5.71Zm0-46.56V46.9h5.87v5.87Zm5.87,46.56V93.62h5.83v5.71Zm5.83,0v5.78H59.83V99.33ZM59.83,52.77V46.9h5.83v5.87Zm5.83,46.56V93.62h5.86v5.71Zm5.86,0v5.78H65.66V99.33ZM65.66,52.77V46.9h5.86v5.87Zm5.86,5.71V52.77h5.84v5.71Zm0,5.87V58.48h5.84v5.87Zm0,5.86V64.35h5.84v5.86Zm0,5.84V70.21h5.84v5.84Zm0,5.87V76.05h5.84v5.87Zm0,5.83V81.92h5.84v5.83Zm0,5.87V87.75h5.84v5.87Zm0,5.71V93.62h5.84v5.71Zm5.84,0v5.78H71.52V99.33ZM71.52,52.77V46.9h5.84v5.87Zm5.84,5.71V52.77h5.75v5.71Zm0,5.87V58.48h5.75v5.87Zm0,5.86V64.35h5.75v5.86Zm0,5.84V70.21h5.75v5.84Zm0,5.87V76.05h5.75v5.87Zm0,5.83V81.92h5.75v5.83Zm0,5.87V87.75h5.75v5.87Zm0,5.71V93.62h5.75v5.71Zm5.75,0v5.78H77.36V99.33Z"/><path class="cls-6" d="M77.36,58.48V52.77h5.86v5.71Zm0,5.87V58.48h5.86v5.87Zm0,5.86V64.35h5.86v5.86Zm0,5.84V70.21h5.86v5.84Zm0,5.87V76.05h5.86v5.87Zm0,5.83V81.92h5.86v5.83Zm0,5.87V87.75h5.86v5.87Zm5.86-35.14V52.77h5.84v5.71Zm0,35.14V87.75h5.84v5.87Zm0,5.71V93.62h5.84v5.71Zm0-46.56V46.9h5.84v5.87Zm5.84,46.56V93.62h5.86v5.71Zm5.86,0v5.78H89.06V99.33ZM89.06,52.77V46.9h5.86v5.87Zm5.86,11.58V58.48h5.72v5.87Zm0,5.86V64.35h5.72v5.86Zm0,5.84V70.21h5.72v5.84Zm0,5.87V76.05h5.72v5.87Zm0,5.83V81.92h5.72v5.83Zm0,11.58V93.62h5.72v5.71Zm5.72,0v5.78H94.92V99.33ZM94.92,52.77V46.9h5.72v5.87Zm5.72,11.58V58.48h5.86v5.87Zm0,5.86V64.35h5.86v5.86Zm0,5.84V70.21h5.86v5.84Zm0,5.87V76.05h5.86v5.87Zm0,5.83V81.92h5.86v5.83Zm0,11.58V93.62h5.86v5.71Zm5.86,0v5.78h-5.86V99.33Zm-5.86-46.56V46.9h5.86v5.87Zm5.86,11.58V58.48h5.87v5.87Zm0,5.86V64.35h5.87v5.86Zm0,5.84V70.21h5.87v5.84Zm0,5.87V76.05h5.87v5.87Zm0,5.83V81.92h5.87v5.83Zm0,11.58V93.62h5.87v5.71Zm5.87,0v5.78H106.5V99.33ZM106.5,52.77V46.9h5.87v5.87Zm5.87,46.56V93.62h5.84v5.71Zm5.84,0v5.78h-5.84V99.33Zm-5.84-46.56V46.9h5.84v5.87Zm5.84,5.71V52.77h5.85v5.71Zm0,35.14V87.75h5.85v5.87Zm0,5.71V93.62h5.85v5.71Zm5.85,0v5.78h-5.85V99.33Zm-5.85-46.56V46.9h5.85v5.87Zm5.85,5.71V52.77h5.84v5.71Zm0,5.87V58.48h5.84v5.87Zm0,5.86V64.35h5.84v5.86Zm0,5.84V70.21h5.84v5.84Zm0,5.87V76.05h5.84v5.87Zm0,5.83V81.92h5.84v5.83Zm0,5.87V87.75h5.84v5.87Zm0,5.71V93.62h5.84v5.71Zm5.84,0v5.78h-5.84V99.33Zm0-35V58.48h5.75v5.87Zm0,5.86V64.35h5.75v5.86Zm0,5.84V70.21h5.75v5.84Zm0,5.87V76.05h5.75v5.87Zm0,5.83V81.92h5.75v5.83Zm0,5.87V87.75h5.75v5.87Zm0,5.71V93.62h5.75v5.71Z"/><path class="cls-6" d="M129.9,58.48V52.77h5.86v5.71Zm0,5.87V58.48h5.86v5.87Zm0,5.86V64.35h5.86v5.86Zm0,5.84V70.21h5.86v5.84Zm0,5.87V76.05h5.86v5.87Zm0,5.83V81.92h5.86v5.83Zm0,5.87V87.75h5.86v5.87Zm0,5.71V93.62h5.86v5.71Zm0-46.56V46.9h5.86v5.87Zm5.86,46.56V93.62h5.84v5.71Zm5.84,0v5.78h-5.84V99.33Zm-5.84-46.56V46.9h5.84v5.87Zm5.84,46.56V93.62h5.86v5.71Zm5.86,0v5.78H141.6V99.33ZM141.6,52.77V46.9h5.86v5.87Zm5.86,11.58V58.48h5.72v5.87Zm0,5.86V64.35h5.72v5.86Zm0,11.71V76.05h5.72v5.87Zm0,5.83V81.92h5.72v5.83Zm3.18,17.36h-3.18V99.33h4a15.8,15.8,0,0,1,1-1.41c.22-.27.45-.54.68-.8v-3.5h-5.72v5.71h4a7.16,7.16,0,0,0-1.15,3.14A6.55,6.55,0,0,0,150.64,105.11Zm-3.18-52.34V46.9h5.72v5.87Zm5.72,11.58V58.48h5.87v5.87Zm0,5.86V64.35h5.87v5.86Zm0,11.71V76.05h5.87v5.87Zm0,5.83V81.92h5.87v5.83Zm0,9.37v-3.5h3.72l-.57.47A32.21,32.21,0,0,0,153.18,97.12Zm0-44.35V46.9h5.87v5.87Zm5.87,11.58V58.48h5.86v5.87Zm0,5.86V64.35h5.86v5.86Zm0,11.71V76.05h5.86v5.87Zm0,5.83V81.92h5.86v5.83Zm0-35V46.9h5.86v5.87Zm5.86,0V46.9h5.84v5.87Zm5.84,5.71V52.77h5.85v5.71Zm0,17.57V70.21h5.85v5.84Zm0-23.28V46.9h5.85v5.87Zm5.85,5.71V52.77h5.84v5.71Zm0,5.87V58.48h5.84v5.87Zm0,5.86V64.35h5.84v5.86Zm0,5.84V70.21h5.84v5.84Zm0,5.87V76.05h5.84v5.87Zm0,3.31V81.92h5.84v5.83h-1l-.07,0a17.31,17.31,0,0,0-4.64-2.44Zm4.83,2.52h1v.79C182.11,88.27,181.78,88,181.43,87.75Zm1-23.4V58.48h5.76v5.87Zm0,5.86V64.35h5.76v5.86Zm0,5.84V70.21h5.76v5.84Zm0,5.87V76.05h5.76v5.87Zm0,5.83V81.92h5.76v5.83Zm0,.79v-.79h5.76v5.87h-1.55a18.92,18.92,0,0,0-1.14-1.76A19.74,19.74,0,0,0,182.44,88.54Zm4.21,5.08h1.55v3.52A20.12,20.12,0,0,0,186.65,93.62Z"/><path class="cls-6" d="M182.44,58.48V52.77h5.87v5.71Zm0,5.87V58.48h5.87v5.87Zm0,5.86V64.35h5.87v5.86Zm0,5.84V70.21h5.87v5.84Zm0,5.87V76.05h5.87v5.87Zm0,5.83V81.92h5.87v5.83Zm0,.79v-.79h5.87v5.87h-1.66a18.92,18.92,0,0,0-1.14-1.76A19.74,19.74,0,0,0,182.44,88.54Zm4.21,5.08h1.66v3.87A19.8,19.8,0,0,0,186.65,93.62Zm-4.21-40.85V46.9h5.87v5.87Zm5.87,44.72V93.62h4.58c-.36.33-.7.68-1,1A22.69,22.69,0,0,0,189,98.45c-.12.19-.23.38-.34.57a14.86,14.86,0,0,0-.37-1.46Zm0-44.72V46.9h5.83v5.87Zm5.83,0V46.9H200v5.87ZM200,64.35V58.48h5.71v5.87Zm0,5.86V64.35h5.71v5.86Zm0,11.71V76.05h5.71v5.87Zm0,5.83V81.92h5.71v5.83Zm1.48,5.87h4.23v.84a8.52,8.52,0,0,0-2.8.25c-.25-.22-.51-.43-.78-.64S201.71,93.76,201.49,93.62ZM200,52.77V46.9h5.71v5.87Zm5.71,11.58V58.48h5.87v5.87Zm0,5.86V64.35h5.87v5.86Zm0,11.71V76.05h5.87v5.87Zm0,5.83V81.92h5.87v5.83Zm0,6.71v-.84h5.87v2.6a13.31,13.31,0,0,0-3.46-1.38A13.76,13.76,0,0,0,205.72,94.46Zm0-41.69V46.9h5.87v5.87Zm5.87,11.58V58.48h5.86v5.87Zm0,5.86V64.35h5.86v5.86Zm0,11.71V76.05h5.86v5.87Zm0,5.83V81.92h5.86v5.83Zm0,8.47v-2.6h5.86v5.71H215.5A15,15,0,0,0,214.1,98,17.11,17.11,0,0,0,211.59,96.22Zm5.86,3.11V102a16.66,16.66,0,0,0-1.95-2.64Zm-5.86-46.56V46.9h5.86v5.87Zm5.86,49.2V99.33h5l.88-.69v-5h-5.84v5.71h5l-.92.77a31.17,31.17,0,0,0-3.3,3.2C218,102.85,217.72,102.4,217.45,102Zm0-49.2V46.9h5.84v5.87Zm5.84,5.71V52.77h5.86v5.71Zm0,17.57V70.21h5.86v5.84Zm0,17.57V87.75h5.86v5.87Zm0,5v-5h5.86v1.09c-1,.55-1.9,1.14-2.82,1.75S224.28,97.88,223.29,98.64Zm0-45.87V46.9h5.86v5.87Zm5.86,5.71V52.77H235v5.71Zm0,5.87V58.48H235v5.87Zm0,5.86V64.35H235v5.86Zm0,5.84V70.21H235v5.84Zm0,5.87V76.05H235v5.87Zm0,5.83V81.92H235v5.83Zm0,7V93.62h2l.47-.24A33.87,33.87,0,0,1,235,92v-4.2h-5.83v5.87h2C230.48,94,229.81,94.33,229.15,94.71ZM235,64.35V58.48h5.76v5.87Zm0,5.86V64.35h5.76v5.86Zm0,5.84V70.21h5.76v5.84Zm0,5.87V76.05h5.76v5.87Zm0,5.83V81.92h5.76v5.83Zm0,4.2v-4.2h5.76V91a9.87,9.87,0,0,0-4,.39C236.12,91.56,235.55,91.74,235,92Z"/><path class="cls-6" d="M235,58.48V52.77h5.87v5.71Zm0,5.87V58.48h5.87v5.87Zm0,5.86V64.35h5.87v5.86Zm0,5.84V70.21h5.87v5.84Zm0-23.28V46.9h5.87v5.87Zm5.87,23.28V70.21h5.83v5.84Zm0,5.87V76.05h5.83v5.87Zm0-29.15V46.9h5.83v5.87Zm5.83,29.15V76.05h5.87v5.87Zm0,5.83V81.92h5.87v5.83Zm0,5.87V87.75h5.87v5.87Zm0,.2v-.2h5.87v5.71h-.91c-.3-.5-.62-1-1-1.47A18.64,18.64,0,0,0,246.68,93.82Zm0-41V46.9h5.87v5.87Zm5.87,5.71V52.77h5.72v5.71Zm0,5.87V58.48h5.72v5.87Zm0,5.86V64.35h5.72v5.86Zm0,30.86V99.33h.6a12.74,12.74,0,0,1,.74-2.9A6.28,6.28,0,0,1,256,93.62h-3.41v5.71h.6a14.1,14.1,0,0,0-.14,2.43c0,.15,0,.29,0,.44C252.88,101.82,252.72,101.44,252.55,101.07Zm0-48.3V46.9h5.72v5.87Zm5.72,5.71V52.77h5.86v5.71Zm0,5.87V58.48h5.86v5.87Zm0,5.86V64.35h5.86v5.86Zm0-17.44V46.9h5.86v5.87Zm5.86,29.15V76.05H270v5.87Zm0,5.83V81.92H270v5.83Zm0,5.41V87.75H270v5.87h-3.27l.23-.19Zm2.6.46H270V94.8l-3.14-.25-1.14-.09Zm-2.6-40.85V46.9H270v5.87ZM270,76.05V70.21h5.83v5.84Zm0,5.87V76.05h5.83v5.87Zm0,5.83V81.92h5.83v5.83Zm0,5.87V87.75h5.83v5.87Zm0,1.18V93.62h5.83v1.66l-2.4-.2Zm0-42V46.9h5.83v5.87Zm5.83,5.71V52.77h5.86v5.71Zm0,5.87V58.48h5.86v5.87Zm0,5.86V64.35h5.86v5.86Zm0,5.84V70.21h5.86v5.84Zm0,5.87V76.05h5.86v5.87Zm0,5.83V81.92h5.86v5.83Zm0-35V46.9h5.86v5.87Zm5.86,5.71V52.77h5.83v5.71Zm0,5.87V58.48h5.83v5.87Zm0,5.86V64.35h5.83v5.86Zm0,5.84V70.21h5.83v5.84Zm0,5.87V76.05h5.83v5.87Z"/><path class="cls-6" d="M280.29,25.82l-1.1,7.74h2.21Zm-1.55,10.64L278,41h-3.1l3.35-19.7h4.09l3.3,19.7h-3.12l-.7-4.54ZM248.28,41h-3V21.3h3ZM218.7,36.11a5.58,5.58,0,0,1-1.07,3.52,3.8,3.8,0,0,1-2,1.39,5.41,5.41,0,0,1-1.64.23,4.67,4.67,0,0,1-2.9-.87,4.92,4.92,0,0,1-1.52-1.93,7.73,7.73,0,0,1-.65-2.79l2.83-.21a4.36,4.36,0,0,0,.91,2.5,1.53,1.53,0,0,0,1.23.55,1.83,1.83,0,0,0,1.55-1,2.36,2.36,0,0,0,.3-1.3,3.61,3.61,0,0,0-1.12-2.44l-2.64-2.5a11.48,11.48,0,0,1-2.09-2.57,5.92,5.92,0,0,1-.66-2.76A4.8,4.8,0,0,1,211,21.89a4.53,4.53,0,0,1,2.77-.83,5,5,0,0,1,2.72.71,4.07,4.07,0,0,1,1.42,1.54,5.58,5.58,0,0,1,.65,2.27l-2.85.52a3.38,3.38,0,0,0-.69-1.88,1.47,1.47,0,0,0-1.18-.48,1.37,1.37,0,0,0-1.25.72,2.8,2.8,0,0,0-.35,1.45,4.3,4.3,0,0,0,1.17,2.74,10.3,10.3,0,0,0,1.32,1.26c.7.58,1.16,1,1.38,1.21a10.5,10.5,0,0,1,1.7,2.17,9.9,9.9,0,0,1,.46.93A5.44,5.44,0,0,1,218.7,36.11Zm-41.8-3.36-4-11.47h3.27l2.2,7.08,2.19-7.08h3.29l-4,11.47V41h-3Zm-32.79-6.93L143,33.56h2.2Zm-1.55,10.64L141.83,41h-3.1l3.35-19.7h4.09l3.3,19.7h-3.12l-.69-4.54Zm-30,4.54h-8.1V21.3h3V38h5.13ZM72.43,25.82l-1.1,7.74h2.2ZM70.88,36.46,70.15,41h-3.1L70.4,21.3h4.09L77.79,41H74.67L74,36.46ZM29.6,41h-3V21.28H30.9l2.77,14.2,2.67-14.2h4.08V41h-3V28.61L34.87,41H32.48L29.6,28.65Z"/><path class="cls-7" d="M89.6,140.05v-3.4h57a14,14,0,0,0,.67,2c.22.48.44,1,.69,1.42Z"/><path class="cls-7" d="M159.55,112.8h4.1l.73-.92c.65-.82,1.3-1.65,1.94-2.48h-1.21l-.18.13c-1,.74-2,1.48-3.08,2.18a7.35,7.35,0,0,1-2.3,1.09m-90.38-3.4,3.4,3.4h85l-.28-.08a7.46,7.46,0,0,1-2.58-1.64,16.81,16.81,0,0,1-1.59-1.68Z"/><path class="cls-7" d="M103.22,123c2.27,0,3.41-.56,3.41-1.7s-1.14-1.71-3.41-1.71h-3.4V123ZM89.6,133.24v-17H110q6.81,0,6.81,5.11c0,3.4-2.27,5.11-6.81,5.11H99.82v6.81Z"/><path class="cls-7" d="M137.28,119.61v6.82q0,3.4-3.41,3.4h-3.4V123q0-3.4,3.4-3.41Zm-17,13.63h20.42q6.81,0,6.81-6.8V116.23H127q-6.78,0-6.79,6.81Z"/><polygon class="cls-7" points="24.81 136.65 24.81 140.05 79.39 140.05 75.98 136.65 24.81 136.65"/><polygon class="cls-7" points="55.54 112.8 67.47 124.72 58.95 133.24 65.76 133.24 70.87 128.13 82.79 140.05 89.6 140.05 89.6 136.65 75.98 123.02 82.79 116.21 75.98 116.21 72.58 119.61 62.36 109.4 55.56 109.41 55.54 112.8"/><rect class="cls-7" x="24.9" y="109.4" width="30.65" height="3.41"/><path class="cls-7" d="M28.3,133.24V123q0-6.81,6.81-6.81H55.55v3.4H41.93c-2.28,0-3.41,1.14-3.41,3.41h6.81v3.41H38.52v3.4h17v3.41Z"/><path class="cls-8" d="M176.72,131.09a19.59,19.59,0,0,1,5.14,2.56,17.87,17.87,0,0,1,3.56,3.32,15.68,15.68,0,0,1,2.16,3.53,14.47,14.47,0,0,1,1,3.05,5.49,5.49,0,0,1,.11,2c-.09.45-.27.57-.54.35s-.69-.6-1.25-1.14a10.21,10.21,0,0,0-2.37-1.61,19.26,19.26,0,0,0-3.86-1.41,19.93,19.93,0,0,0-5.54-.55,41.21,41.21,0,0,0-7.51,1,63.34,63.34,0,0,0-9.83,3.11,6.67,6.67,0,0,1-2.71-1.49,17.66,17.66,0,0,1-2.77-2.88,16.83,16.83,0,0,1-2.11-3.6,7.32,7.32,0,0,1-.7-3.61,1.19,1.19,0,0,1,.14-.64,4.35,4.35,0,0,1,2.62-2.32c1.13-1.16,2.51-2.66,4.14-4.48s3.35-3.8,5.15-5.92,3.59-4.3,5.36-6.53,3.36-4.31,4.78-6.28,2.59-3.68,3.51-5.16a9.2,9.2,0,0,0,1.47-3.23,3.92,3.92,0,0,0-2.6.39,23.68,23.68,0,0,0-3.46,1.91q-1.87,1.22-3.84,2.71c-1.31,1-2.54,1.93-3.69,2.77s-2.14,1.55-3,2.1-1.41.77-1.74.65a4.5,4.5,0,0,1-1.48-1,14.43,14.43,0,0,1-1.63-1.8,11.8,11.8,0,0,1-1.3-2.13,4,4,0,0,1-.43-2.05A5.7,5.7,0,0,1,155,99.89a25.59,25.59,0,0,1,3.42-3.41A48.61,48.61,0,0,1,163,93.06a40.93,40.93,0,0,1,4.95-2.87,27,27,0,0,1,4.51-1.78,6,6,0,0,1,3.34-.17,13.93,13.93,0,0,1,3.76,2,15.7,15.7,0,0,1,5.79,8.2,14.44,14.44,0,0,1,.45,5.86,13.54,13.54,0,0,1-1.87,4.83,67.42,67.42,0,0,1-4.26,6.52c-1.7,2.32-3.61,4.71-5.74,7.14s-4.26,4.68-6.39,6.72c1.88.18,3.64.4,5.27.67A26.61,26.61,0,0,1,176.72,131.09Z"/><path class="cls-8" d="M187.44,135.3a17.59,17.59,0,0,1,4.62-1.33,29.73,29.73,0,0,1,5.48-.34,52.58,52.58,0,0,1,5.62.48,37.81,37.81,0,0,1,5.09,1.09,17.39,17.39,0,0,1,3.9,1.64,5.31,5.31,0,0,1,2.09,1.95q0,.08-.15.06a.81.81,0,0,1-.21-.09l.83,1.24-.59.09.5.93a4.73,4.73,0,0,1,.29.76q.12.38,0,.51c-.06.14-.14.37-.24.67s-.22.63-.35,1a8,8,0,0,0-.48,1.27l-.62-.42a30.13,30.13,0,0,0-5.84-.84,51.76,51.76,0,0,0-5.86.09,55.23,55.23,0,0,0-5.58.69q-2.72.48-5,1a3.38,3.38,0,0,1-3.1-.47,4.63,4.63,0,0,1-1.55-2.59,9.49,9.49,0,0,1-.1-3.67A10.16,10.16,0,0,1,187.44,135.3ZM187.9,112a27,27,0,0,1,1.47-6.81,30,30,0,0,1,2.41-5.15,19.09,19.09,0,0,1,2.43-3.28,7.1,7.1,0,0,1,1.43-1.3,4,4,0,0,1,2.42,0,7.15,7.15,0,0,1,2.2,1.12,8,8,0,0,1,1.64,1.65,3.93,3.93,0,0,1,.74,1.42,1.59,1.59,0,0,1-.09,1,.94.94,0,0,1-.79.69c-.62.87-1.36,2-2.23,3.52a14.63,14.63,0,0,0-1.65,6,18.09,18.09,0,0,0,.18,5.21,12.88,12.88,0,0,0,1.21,3.51,7.18,7.18,0,0,0,1.54,2,2.79,2.79,0,0,0,1.07.69,2.17,2.17,0,0,0,1.47-.49,7.39,7.39,0,0,0,2-2,16.49,16.49,0,0,0,1.87-3.63,20.08,20.08,0,0,0,1.16-5.41,14.17,14.17,0,0,0-.49-6.19,8.67,8.67,0,0,0-2-3.25,5.36,5.36,0,0,0-3.17-1.39l-.28-.1a2.51,2.51,0,0,0,.38-.11c.2-.08.28-.19.25-.34s-.14-.14-.27-.25a.36.36,0,0,1-.19-.31l.26-.45a1.16,1.16,0,0,1,.7-.48,6.87,6.87,0,0,1,3.87.06,11.49,11.49,0,0,1,4.67,2.48,14.34,14.34,0,0,1,3.72,5.2,16.69,16.69,0,0,1,1,8.32,29.19,29.19,0,0,1-1.69,7.56,20.34,20.34,0,0,1-3.4,6,14.59,14.59,0,0,1-4.81,3.83,10.36,10.36,0,0,1-5.83,1,10.8,10.8,0,0,1-6.15-2.72,19.06,19.06,0,0,1-4.21-5.43,25.22,25.22,0,0,1-2.33-6.39A18.84,18.84,0,0,1,187.9,112Z"/><path class="cls-8" d="M241.88,137.1a19.74,19.74,0,0,1,5.14,2.55,17.9,17.9,0,0,1,3.56,3.33,15.63,15.63,0,0,1,2.16,3.52,14.35,14.35,0,0,1,1,3.06,5.43,5.43,0,0,1,.11,2c-.09.46-.27.57-.54.35s-.69-.6-1.25-1.14a10.21,10.21,0,0,0-2.37-1.6,18.63,18.63,0,0,0-3.86-1.42,20.31,20.31,0,0,0-5.54-.55,41.21,41.21,0,0,0-7.51,1,64.6,64.6,0,0,0-9.83,3.12,6.67,6.67,0,0,1-2.71-1.49,18.6,18.6,0,0,1-2.77-2.89,16.76,16.76,0,0,1-2.11-3.59,7.34,7.34,0,0,1-.7-3.61,1.13,1.13,0,0,1,.14-.65,4.35,4.35,0,0,1,2.62-2.32q1.7-1.74,4.14-4.48t5.15-5.92c1.81-2.12,3.59-4.3,5.36-6.52s3.35-4.32,4.78-6.28,2.59-3.69,3.51-5.16a9.28,9.28,0,0,0,1.47-3.23,3.85,3.85,0,0,0-2.6.38,23.68,23.68,0,0,0-3.46,1.91q-1.87,1.22-3.84,2.72t-3.69,2.76c-1.15.85-2.14,1.55-3,2.11s-1.41.77-1.74.64a4.35,4.35,0,0,1-1.48-1,14.31,14.31,0,0,1-1.63-1.79,11.8,11.8,0,0,1-1.3-2.13,4,4,0,0,1-.43-2,5.72,5.72,0,0,1,1.47-2.83,26.19,26.19,0,0,1,3.42-3.41,52.37,52.37,0,0,1,4.55-3.42,43,43,0,0,1,4.94-2.87,26.47,26.47,0,0,1,4.52-1.77,5.84,5.84,0,0,1,3.34-.17,13.88,13.88,0,0,1,3.76,2,15.73,15.73,0,0,1,3.45,3.46,15.5,15.5,0,0,1,2.34,4.75,14.41,14.41,0,0,1,.45,5.85,13.47,13.47,0,0,1-1.87,4.83,67.42,67.42,0,0,1-4.26,6.52q-2.55,3.5-5.74,7.15c-2.12,2.43-4.26,4.67-6.39,6.72,1.88.17,3.64.39,5.27.67A25.4,25.4,0,0,1,241.88,137.1Z"/><path class="cls-8" d="M278.67,115.42a25.76,25.76,0,0,1,11.58,8.41,23,23,0,0,1,3,5.06,29.15,29.15,0,0,1,1.59,4.86,22.7,22.7,0,0,1,.61,4.08,20,20,0,0,1,0,2.67,11,11,0,0,1-1.57,4.35,14.07,14.07,0,0,1-4.21,4.36,22.27,22.27,0,0,1-7.27,3.13,31.38,31.38,0,0,1-10.76.58A31.85,31.85,0,0,1,261,150.3a23.6,23.6,0,0,1-7-4.78,16.08,16.08,0,0,1-3.71-5.71,12.69,12.69,0,0,1-.85-5.45,11,11,0,0,1,1.2-4.31,12.69,12.69,0,0,1,2.1-2.92,11.92,11.92,0,0,1,2.9-2.21c.16-.14.28-.15.37,0a.61.61,0,0,1,.07.51,8.83,8.83,0,0,1-.45,1.28,7.81,7.81,0,0,0,.1,6.84,13.53,13.53,0,0,0,5.08,5.15,30.18,30.18,0,0,0,8,3.33,38.63,38.63,0,0,0,8.86,1.37,26.26,26.26,0,0,0,7.64-.76q3.33-.9,4.33-3a20.93,20.93,0,0,0-5.7-7.94,33.31,33.31,0,0,0-8.14-5.29,33.82,33.82,0,0,0-8.6-2.65,22.44,22.44,0,0,0-7.07-.22c-.2,0-.5-.35-.92-1.14a10.74,10.74,0,0,1-.95-2.79,9.9,9.9,0,0,1-.1-3.26,3.56,3.56,0,0,1,1.55-2.57l0-.21a.31.31,0,0,0,.19,0,.16.16,0,0,1,.11,0,4.77,4.77,0,0,1,2.39-.51,3.56,3.56,0,0,1,.73,0,3.56,3.56,0,0,0,.73,0,42.1,42.1,0,0,0,7.22-1.79,48.06,48.06,0,0,0,5.89-2.49c-1.75,0-3.5-.05-5.25-.11s-3.41-.12-5-.17-3-.11-4.19-.17-2.13-.12-2.76-.18a3.21,3.21,0,0,1-2.69-2.15,11,11,0,0,1-.92-4.25,10.45,10.45,0,0,1,.67-4.11c.47-1.22,1.2-1.78,2.16-1.7a1.32,1.32,0,0,0-.33.41c-.12.33,0,.54.53.64a20.21,20.21,0,0,0,2.27.32c1.38.15,3.08.3,5.11.47l6.57.53,6.75.55,5.66.45c1.62.12,2.69.21,3.23.26v0a.44.44,0,0,0,.29,0c.25,0,.5.46.76,1.31a8.17,8.17,0,0,1,.83,2.49,14.74,14.74,0,0,1,.09,4.18,4.57,4.57,0,0,1-1.16,2.63,11,11,0,0,1-2.68,2.2,22,22,0,0,1-3.83,1.81C281.71,114.56,280.21,115,278.67,115.42Z"/><path class="cls-9" d="M8,35.05l-.25,0H3.39A1.35,1.35,0,0,0,2,36.27v.51a10.27,10.27,0,0,0,.65,3.61Z"/><path class="cls-9" d="M21.36,21.68a9.67,9.67,0,0,0-8.42-4.92h-1A17.91,17.91,0,0,0,9,16.91V9H20.11a1.77,1.77,0,0,0,1.76-1.86V3.91a2,2,0,0,0-2-2H4.42A2.4,2.4,0,0,0,2,4.27V25c0,.06,0,.06,0,.11v.1a2,2,0,0,0,2.27,2.17h3a2.44,2.44,0,0,0,2.12-1.29,3.27,3.27,0,0,1,2.89-1.81h.15a3.16,3.16,0,0,1,3.15,3.13Z"/><path class="cls-9" d="M11.91,46.9h1a9.92,9.92,0,0,0,9.75-10.12v-10A11.14,11.14,0,0,0,22.55,25l-6.88,6.88v4.36a3.22,3.22,0,0,1-3.15,3.4h-.15A3.12,3.12,0,0,1,9.56,38L4.31,43.27a9.81,9.81,0,0,0,7.6,3.63"/><path class="cls-8" d="M24.91,10a.25.25,0,0,1-.19-.09.25.25,0,0,1-.09-.21V3.48h-.92c-.21,0-.32-.09-.32-.27V2.46c0-.18.11-.27.32-.27H27a.36.36,0,0,1,.23.08.23.23,0,0,1,.1.19v.75a.23.23,0,0,1-.1.19.36.36,0,0,1-.23.08H26V9.74A.32.32,0,0,1,26,10a.28.28,0,0,1-.2.09Z"/><path class="cls-8" d="M28.52,10a.28.28,0,0,1-.2-.09.29.29,0,0,1-.09-.21V2.51a.29.29,0,0,1,.09-.21.28.28,0,0,1,.2-.09h.83a.26.26,0,0,1,.21.09.26.26,0,0,1,.09.21V5.27h2.12V2.51a.26.26,0,0,1,.1-.21.29.29,0,0,1,.22-.09h.8a.29.29,0,0,1,.22.09.26.26,0,0,1,.1.21V9.74a.26.26,0,0,1-.1.21.29.29,0,0,1-.22.09h-.8a.29.29,0,0,1-.22-.09.26.26,0,0,1-.1-.21V6.63H29.65v3.1a.29.29,0,0,1-.09.21.26.26,0,0,1-.21.09Z"/><path class="cls-8" d="M39.77,17.34a.61.61,0,0,1-.45-.16.37.37,0,0,1-.11-.38L42,3a.63.63,0,0,1,.27-.4.8.8,0,0,1,.49-.16h2.69a.8.8,0,0,1,.51.16.69.69,0,0,1,.28.4L49.05,16.8a.44.44,0,0,1-.12.39.58.58,0,0,1-.43.15H46.7a.48.48,0,0,1-.55-.46l-.64-3.47H42.77l-.65,3.47a.49.49,0,0,1-.55.46ZM44.23,5.58c0-.07-.06-.1-.1-.1s-.08,0-.1.1l-.91,5.35h2Z"/><path class="cls-8" d="M51,17.31a.6.6,0,0,1-.41-.17.54.54,0,0,1-.18-.41V3a.54.54,0,0,1,.18-.41A.6.6,0,0,1,51,2.38h2.52a.87.87,0,0,1,.5.16.71.71,0,0,1,.3.38l3.09,9.23L57.17,3a.57.57,0,0,1,.17-.41.53.53,0,0,1,.4-.17h1.61a.62.62,0,0,1,.38.14.41.41,0,0,1,.17.28V16.58a.84.84,0,0,1-.16.53.47.47,0,0,1-.39.2H57.16a.76.76,0,0,1-.46-.16.92.92,0,0,1-.31-.38L53,7.35l.19,9.38a.56.56,0,0,1-.16.41.57.57,0,0,1-.42.17Z"/><path class="cls-8" d="M62.35,17.31a.6.6,0,0,1-.41-.17.54.54,0,0,1-.18-.41V3a.54.54,0,0,1,.18-.41.6.6,0,0,1,.41-.17h2.52a.87.87,0,0,1,.5.16.71.71,0,0,1,.3.38l3.09,9.23L68.53,3a.57.57,0,0,1,.17-.41.53.53,0,0,1,.4-.17h1.61a.59.59,0,0,1,.38.14.41.41,0,0,1,.17.28V16.58a.84.84,0,0,1-.16.53.47.47,0,0,1-.39.2H68.52a.76.76,0,0,1-.46-.16.92.92,0,0,1-.31-.38L64.31,7.35l.19,9.38a.56.56,0,0,1-.16.41.57.57,0,0,1-.42.17Z"/><path class="cls-8" d="M73.68,17.38a.54.54,0,0,1-.4-.17.57.57,0,0,1-.16-.41V3a.56.56,0,0,1,.16-.41.51.51,0,0,1,.4-.17h1.57a.5.5,0,0,1,.38.17.56.56,0,0,1,.16.41V16.8a.57.57,0,0,1-.16.41.53.53,0,0,1-.38.17Z"/><path class="cls-8" d="M80.73,17.33a1,1,0,0,1-.52-.16.72.72,0,0,1-.28-.4L77.16,3a.4.4,0,0,1,.1-.39.54.54,0,0,1,.43-.16h1.8c.3,0,.47.24.53.72l1.85,10.62a.22.22,0,0,0,.24.17c.07,0,.12-.06.16-.17l1.8-10.88a.52.52,0,0,1,.55-.46h1.82a.57.57,0,0,1,.43.16A.38.38,0,0,1,87,3L84.17,16.77a.66.66,0,0,1-.27.4.87.87,0,0,1-.49.16Z"/><path class="cls-8" d="M88.93,17.28a.57.57,0,0,1-.42-.17.52.52,0,0,1-.16-.4V3a.5.5,0,0,1,.16-.39.57.57,0,0,1,.42-.16h6.26a.56.56,0,0,1,.41.16.51.51,0,0,1,.17.39V4.42a.58.58,0,0,1-.58.58H90.9V8.25h3.25a.5.5,0,0,1,.39.16.56.56,0,0,1,.14.39v1.48a.47.47,0,0,1-.53.53H90.9v3.88h4.29a.56.56,0,0,1,.41.16.53.53,0,0,1,.17.38v1.48a.53.53,0,0,1-.17.4.57.57,0,0,1-.41.17Z"/><path class="cls-8" d="M97.72,17.33a.63.63,0,0,1-.43-.15.44.44,0,0,1-.17-.35V3.06a.61.61,0,0,1,.17-.42.57.57,0,0,1,.43-.18h4.17a3.45,3.45,0,0,1,2.37.86,2.73,2.73,0,0,1,.91,2.12V8.05a2.61,2.61,0,0,1-.43,1.44,3.09,3.09,0,0,1-1.15,1.06l0,0,2.13,6.25a.24.24,0,0,1,0,.15.28.28,0,0,1-.12.23.43.43,0,0,1-.29.1h-1.85a.67.67,0,0,1-.41-.15.68.68,0,0,1-.28-.33l-1.72-5.31a1.12,1.12,0,0,0-.52-.15.73.73,0,0,0-.58.25v5.19a.44.44,0,0,1-.17.35.61.61,0,0,1-.41.15Zm3.54-8.52a1.17,1.17,0,0,0,.84-.33,1.05,1.05,0,0,0,.35-.79V5.75a1.11,1.11,0,0,0-.35-.83,1.14,1.14,0,0,0-.84-.34h-1.18a.23.23,0,0,0-.19.09.32.32,0,0,0-.08.21V8.46a.38.38,0,0,0,.36.35Z"/><path class="cls-8" d="M110.83,17.55a3.65,3.65,0,0,1-2.74-1.21A4.11,4.11,0,0,1,107,13.45v0a.69.69,0,0,1,.2-.51.66.66,0,0,1,.48-.21h1.52s0,0,.08,0h0a.61.61,0,0,1,.44.61v.22a1.48,1.48,0,0,0,.29.89,1.38,1.38,0,0,0,.75.51,1.31,1.31,0,0,0,.44.07h.07a.47.47,0,0,0,.19,0h0a1.49,1.49,0,0,0,1-.46,1.37,1.37,0,0,0,.39-1l0-1.07A1.57,1.57,0,0,0,112,11a3.33,3.33,0,0,0-1.58-.31l-.39-.05a3.34,3.34,0,0,1-1.33-.34,2.39,2.39,0,0,1-.85-.67,2.8,2.8,0,0,1-.46-.95,4.85,4.85,0,0,1-.22-1c0-.29,0-.63,0-1l0-.75,0-.31a3,3,0,0,1,1-2.35,3.63,3.63,0,0,1,2.76-1h.65a3.57,3.57,0,0,1,2.63,1.11,3.62,3.62,0,0,1,1.09,2.74h0a.65.65,0,0,1-.17.46.58.58,0,0,1-.44.19H113.2a.6.6,0,0,1-.56-.59V6a1.3,1.3,0,0,0-.29-.82,1.57,1.57,0,0,0-.75-.52,1.54,1.54,0,0,0-.43,0h-.27a1.55,1.55,0,0,0-1,.45,1.26,1.26,0,0,0-.37.93V7.27a1,1,0,0,0,.56.85,4.59,4.59,0,0,0,1.62.29,3.92,3.92,0,0,1,2.84,1.15,4.45,4.45,0,0,1,.9,3,5.61,5.61,0,0,1-.81,3.21,4.1,4.1,0,0,1-1.4,1.29,3.6,3.6,0,0,1-1.79.47Z"/><path class="cls-8" d="M117.08,17.34a.61.61,0,0,1-.45-.16.39.39,0,0,1-.11-.38L119.33,3a.67.67,0,0,1,.27-.4.83.83,0,0,1,.5-.16h2.69a.84.84,0,0,1,.51.16.67.67,0,0,1,.27.4l2.79,13.79a.39.39,0,0,1-.12.39.57.57,0,0,1-.42.15H124a.47.47,0,0,1-.54-.46l-.65-3.47h-2.74l-.65,3.47a.48.48,0,0,1-.54.46Zm4.46-11.76c0-.07-.05-.1-.1-.1s-.08,0-.1.1l-.9,5.35h2Z"/><path class="cls-8" d="M128.31,17.33a.64.64,0,0,1-.43-.15.44.44,0,0,1-.17-.35V3.06a.61.61,0,0,1,.17-.42.58.58,0,0,1,.43-.18h4.17a3.45,3.45,0,0,1,2.37.86,2.73,2.73,0,0,1,.91,2.12V8.05a2.61,2.61,0,0,1-.43,1.44,3.09,3.09,0,0,1-1.15,1.06l0,0,2.13,6.25a.24.24,0,0,1,0,.15.28.28,0,0,1-.12.23.43.43,0,0,1-.29.1H134.1a.67.67,0,0,1-.41-.15.61.61,0,0,1-.27-.33l-1.72-5.31a1.19,1.19,0,0,0-.53-.15.73.73,0,0,0-.58.25v5.19a.44.44,0,0,1-.17.35.59.59,0,0,1-.41.15Zm3.54-8.52a1.17,1.17,0,0,0,.84-.33,1.05,1.05,0,0,0,.35-.79V5.75a1.11,1.11,0,0,0-.35-.83,1.14,1.14,0,0,0-.84-.34h-1.18a.23.23,0,0,0-.19.09.32.32,0,0,0-.08.21V8.46a.38.38,0,0,0,.36.35Z"/><path class="cls-8" d="M140.86,17.41a.63.63,0,0,1-.45-.17.53.53,0,0,1-.2-.41V10.77a4.38,4.38,0,0,0-.3-1L137.44,3.3a.71.71,0,0,1-.07-.27.6.6,0,0,1,.21-.45.71.71,0,0,1,.52-.2h1.31a.8.8,0,0,1,.74.46l1.42,4.22s.05.05.11.05,0,0,.07-.05l1.46-4.22a.64.64,0,0,1,.25-.32.56.56,0,0,1,.38-.14h1.34a.73.73,0,0,1,.52.2.61.61,0,0,1,.22.46.45.45,0,0,1,0,.13.4.4,0,0,0,0,.13l-2.51,6.45a3.8,3.8,0,0,0-.25,1v6.06a.51.51,0,0,1-.21.41.67.67,0,0,1-.47.17Z"/><rect class="cls-7" x="146.17" y="14.58" width="140.42" height="2.75"/><path class="cls-8" d="M27.26,145.55l.09-.86h-.87l-.09.86Zm-1.51.58h-.9v-.58h1l.09-.86h-.83v-.58H26l.11-1h.58l-.11,1h.87l.11-1h.57l-.11,1h.91v.58h-1l-.09.86h.85v.58h-.91l-.1,1h-.58l.11-1h-.88l-.1,1h-.57Z"/><path class="cls-8" d="M29.74,143.82h.94v4.33h-.94Zm0-1.44h.94v.94h-.94Z"/><path class="cls-8" d="M32,144.62h-.72v-.82H32v-1.06H33v1.06h1v.82H33v2.23a.4.4,0,0,0,.18.38.83.83,0,0,0,.43.11H34v.81h-.52a2,2,0,0,1-.56-.07,1.24,1.24,0,0,1-.45-.25,1.1,1.1,0,0,1-.31-.44,1.73,1.73,0,0,1-.11-.68Z"/><path class="cls-8" d="M34.69,147.34H37a.76.76,0,0,0,.41-.11.37.37,0,0,0,.17-.35.39.39,0,0,0-.17-.38.76.76,0,0,0-.41-.1H35.9a1.93,1.93,0,0,1-.55-.07.94.94,0,0,1-.69-.61,1.89,1.89,0,0,1-.09-.62,1.82,1.82,0,0,1,.09-.61,1,1,0,0,1,.27-.39,1,1,0,0,1,.42-.21,1.93,1.93,0,0,1,.55-.07h2.39v.82H36a.77.77,0,0,0-.42.1.46.46,0,0,0,0,.73.77.77,0,0,0,.42.11h1a2.38,2.38,0,0,1,.55.06,1.06,1.06,0,0,1,.42.22,1.08,1.08,0,0,1,.27.4,1.81,1.81,0,0,1,.09.62,1.72,1.72,0,0,1-.09.6.94.94,0,0,1-.27.39,1.05,1.05,0,0,1-.42.22,2.32,2.32,0,0,1-.55.06H34.69Z"/><path class="cls-8" d="M39.87,146.8a.49.49,0,0,0,.17.42.6.6,0,0,0,.38.12H42v-1.08H40.42a.6.6,0,0,0-.38.12.48.48,0,0,0-.17.42m-.93,0a1.72,1.72,0,0,1,.1-.64,1,1,0,0,1,.27-.41,1,1,0,0,1,.41-.23,2,2,0,0,1,.5-.07H42a.76.76,0,0,0-.09-.38.62.62,0,0,0-.23-.25,1,1,0,0,0-.32-.14,1.78,1.78,0,0,0-.41,0h-1.7v-.82H41a3.24,3.24,0,0,1,.72.08,1.61,1.61,0,0,1,.59.28,1.38,1.38,0,0,1,.41.51,1.72,1.72,0,0,1,.15.76v2.7H40.22a1.63,1.63,0,0,1-.5-.07,1,1,0,0,1-.41-.22,1.13,1.13,0,0,1-.27-.42A1.76,1.76,0,0,1,38.94,146.8Z"/><rect class="cls-8" x="43.68" y="142.38" width="0.94" height="5.77"/><rect class="cls-8" x="45.46" y="142.38" width="0.94" height="5.77"/><path class="cls-8" d="M48,146.8a.48.48,0,0,0,.16.42.62.62,0,0,0,.38.12h1.55v-1.08H48.51a.62.62,0,0,0-.38.12.47.47,0,0,0-.16.42m-.94,0a1.72,1.72,0,0,1,.1-.64,1.13,1.13,0,0,1,.27-.41,1.11,1.11,0,0,1,.41-.23,2.08,2.08,0,0,1,.5-.07h1.75a.76.76,0,0,0-.09-.38.6.6,0,0,0-.22-.25,1.22,1.22,0,0,0-.33-.14,1.78,1.78,0,0,0-.41,0H47.32v-.82h1.82a3.22,3.22,0,0,1,.71.08,1.66,1.66,0,0,1,.6.28,1.36,1.36,0,0,1,.4.51,1.72,1.72,0,0,1,.15.76v2.7H48.31a1.68,1.68,0,0,1-.5-.07,1.09,1.09,0,0,1-.41-.22,1.27,1.27,0,0,1-.27-.42A1.76,1.76,0,0,1,47,146.8Z"/><path class="cls-8" d="M53.55,147.34a1.1,1.1,0,0,0,.41-.07.67.67,0,0,0,.33-.22,1.07,1.07,0,0,0,.23-.41,2.4,2.4,0,0,0,.08-.65,2.35,2.35,0,0,0-.08-.65,1.12,1.12,0,0,0-.23-.42.83.83,0,0,0-.33-.22,1.35,1.35,0,0,0-.41-.06h-1v2.7Zm-2-5h.94v1.44h1.17a2.46,2.46,0,0,1,.72.11,1.52,1.52,0,0,1,.59.37,1.84,1.84,0,0,1,.4.67,3.51,3.51,0,0,1,0,2,1.76,1.76,0,0,1-.4.67,1.41,1.41,0,0,1-.59.37,2.17,2.17,0,0,1-.72.11H51.57Z"/><path class="cls-8" d="M58.06,147.45a1.33,1.33,0,0,0,.45-.08.82.82,0,0,0,.37-.24,1,1,0,0,0,.25-.44,2,2,0,0,0,.1-.7,2,2,0,0,0-.1-.7,1.08,1.08,0,0,0-.25-.45.91.91,0,0,0-.37-.24,1.48,1.48,0,0,0-.9,0,.91.91,0,0,0-.37.24,1.21,1.21,0,0,0-.26.45,2.29,2.29,0,0,0-.09.7,2.33,2.33,0,0,0,.09.7,1.17,1.17,0,0,0,.26.44.82.82,0,0,0,.37.24,1.33,1.33,0,0,0,.45.08M56,146a2.94,2.94,0,0,1,.17-1.06,1.88,1.88,0,0,1,.45-.71,1.7,1.7,0,0,1,.66-.39,2.78,2.78,0,0,1,.83-.12,2.74,2.74,0,0,1,.81.12,1.74,1.74,0,0,1,.67.39,2,2,0,0,1,.46.71,2.94,2.94,0,0,1,.17,1.06,3,3,0,0,1-.17,1.06,2,2,0,0,1-.46.7,1.74,1.74,0,0,1-.67.39,2.74,2.74,0,0,1-.81.12,2.78,2.78,0,0,1-.83-.12,1.7,1.7,0,0,1-.66-.39,1.84,1.84,0,0,1-.45-.7A3,3,0,0,1,56,146Z"/><path class="cls-8" d="M60.73,143.82h.94v2.69a.87.87,0,0,0,.08.39.76.76,0,0,0,.22.25.94.94,0,0,0,.34.14,1.68,1.68,0,0,0,.4.05h.91v-3.52h.94v4.33h-2a3.38,3.38,0,0,1-.72-.08,1.61,1.61,0,0,1-.59-.28,1.36,1.36,0,0,1-.4-.51,1.76,1.76,0,0,1-.15-.77Z"/><path class="cls-8" d="M65.91,144.62h-.73v-.82h.73v-1.06h.93v1.06h1v.82h-1v2.23a.4.4,0,0,0,.18.38.87.87,0,0,0,.44.11h.39v.81h-.52a2,2,0,0,1-.55-.07,1.29,1.29,0,0,1-.46-.25,1.08,1.08,0,0,1-.3-.44,1.73,1.73,0,0,1-.11-.68Z"/><path class="cls-8" d="M70.54,147.34a1.14,1.14,0,0,0,.41-.07.67.67,0,0,0,.33-.22,1.06,1.06,0,0,0,.22-.41,2,2,0,0,0,.09-.65,2,2,0,0,0-.09-.65,1.11,1.11,0,0,0-.22-.42.83.83,0,0,0-.33-.22,1.4,1.4,0,0,0-.41-.06H69.49v2.7Zm-1.05,2.26h-.94v-5.78h2.11a2.36,2.36,0,0,1,.72.11,1.55,1.55,0,0,1,.6.37,2,2,0,0,1,.4.67,3.75,3.75,0,0,1,0,2,1.89,1.89,0,0,1-.4.67,1.44,1.44,0,0,1-.6.37,2.09,2.09,0,0,1-.72.11H69.49Z"/><path class="cls-8" d="M73.88,146.8a.48.48,0,0,0,.16.42.62.62,0,0,0,.38.12H76v-1.08H74.42a.62.62,0,0,0-.38.12.47.47,0,0,0-.16.42m-.94,0a1.72,1.72,0,0,1,.1-.64,1.13,1.13,0,0,1,.27-.41,1,1,0,0,1,.41-.23,2,2,0,0,1,.5-.07H76a.76.76,0,0,0-.09-.38.62.62,0,0,0-.23-.25,1,1,0,0,0-.32-.14,1.78,1.78,0,0,0-.41,0H73.23v-.82H75a3.24,3.24,0,0,1,.72.08,1.61,1.61,0,0,1,.59.28,1.29,1.29,0,0,1,.41.51,1.72,1.72,0,0,1,.15.76v2.7H74.22a1.63,1.63,0,0,1-.5-.07,1,1,0,0,1-.41-.22,1.27,1.27,0,0,1-.27-.42A1.76,1.76,0,0,1,72.94,146.8Z"/><path class="cls-8" d="M77.69,147.34H80a.82.82,0,0,0,.42-.11.38.38,0,0,0,.16-.35.41.41,0,0,0-.16-.38.82.82,0,0,0-.42-.1h-1a2,2,0,0,1-.56-.07,1,1,0,0,1-.42-.21,1.17,1.17,0,0,1-.27-.4,1.89,1.89,0,0,1-.09-.62,1.82,1.82,0,0,1,.09-.61,1.13,1.13,0,0,1,.27-.39,1,1,0,0,1,.42-.21,2,2,0,0,1,.56-.07H81.3v.82H79a.82.82,0,0,0-.42.1.48.48,0,0,0,0,.73.77.77,0,0,0,.42.11h1a2.38,2.38,0,0,1,.55.06.94.94,0,0,1,.42.22,1,1,0,0,1,.27.4,1.81,1.81,0,0,1,.09.62,1.72,1.72,0,0,1-.09.6.86.86,0,0,1-.27.39,1.05,1.05,0,0,1-.42.22,2.32,2.32,0,0,1-.55.06H77.69Z"/><path class="cls-8" d="M82.17,147.34h2.27a.76.76,0,0,0,.41-.11.39.39,0,0,0,.17-.35.41.41,0,0,0-.17-.38.76.76,0,0,0-.41-.1H83.38a1.93,1.93,0,0,1-.55-.07.93.93,0,0,1-.42-.21,1,1,0,0,1-.27-.4,1.89,1.89,0,0,1-.09-.62,1.82,1.82,0,0,1,.09-.61.91.91,0,0,1,.27-.39.93.93,0,0,1,.42-.21,1.93,1.93,0,0,1,.55-.07h2.39v.82H83.5a.76.76,0,0,0-.41.1.46.46,0,0,0,0,.73.76.76,0,0,0,.41.11h1.06a2.38,2.38,0,0,1,.55.06,1.06,1.06,0,0,1,.42.22,1,1,0,0,1,.26.4,1.58,1.58,0,0,1,.1.62,1.51,1.51,0,0,1-.1.6.92.92,0,0,1-.26.39,1.2,1.2,0,0,1-.42.22,2.38,2.38,0,0,1-.55.06H82.17Z"/><path class="cls-8" d="M86.63,143.82h.94v4.33h-.94Zm0-1.44h.94v.94h-.94Z"/><path class="cls-8" d="M90.3,147.45a1.44,1.44,0,0,0,.46-.08.88.88,0,0,0,.37-.24,1.16,1.16,0,0,0,.25-.44,2.33,2.33,0,0,0,.09-.7,2.29,2.29,0,0,0-.09-.7,1.2,1.2,0,0,0-.25-.45,1,1,0,0,0-.37-.24,1.43,1.43,0,0,0-.46-.07,1.41,1.41,0,0,0-.45.07,1,1,0,0,0-.37.24,1.2,1.2,0,0,0-.25.45,2.29,2.29,0,0,0-.09.7,2.33,2.33,0,0,0,.09.7,1.16,1.16,0,0,0,.25.44.88.88,0,0,0,.37.24,1.42,1.42,0,0,0,.45.08M88.2,146a3,3,0,0,1,.16-1.06,1.88,1.88,0,0,1,.45-.71,1.74,1.74,0,0,1,.67-.39,2.71,2.71,0,0,1,.82-.12,2.76,2.76,0,0,1,.82.12,1.82,1.82,0,0,1,.67.39,1.88,1.88,0,0,1,.45.71,2.74,2.74,0,0,1,.17,1.06,2.77,2.77,0,0,1-.17,1.06,1.84,1.84,0,0,1-.45.7,1.82,1.82,0,0,1-.67.39,2.76,2.76,0,0,1-.82.12,2.71,2.71,0,0,1-.82-.12,1.74,1.74,0,0,1-.67-.39,1.84,1.84,0,0,1-.45-.7A3,3,0,0,1,88.2,146Z"/><path class="cls-8" d="M93.05,143.82h2a3.24,3.24,0,0,1,.72.08,1.66,1.66,0,0,1,.6.28,1.47,1.47,0,0,1,.4.51,2,2,0,0,1,.14.77v2.69h-.93v-2.69a.8.8,0,0,0-.09-.39.75.75,0,0,0-.22-.25,1.22,1.22,0,0,0-.33-.14,1.84,1.84,0,0,0-.41,0H94v3.51h-.94Z"/></svg>